<svg height="557.586" viewBox="0 0 740.146 557.586" width="740.146" xmlns="http://www.w3.org/2000/svg"><g fill="none" opacity=".38" stroke="#fff" stroke-miterlimit="10" stroke-width="5" transform="matrix(.951 -.309 .309 .951 -990.082 -138.577)"><path d="m1288.361 769.845c-6.476-2.907-12.29-5.814-17.385-10.477-3.4 3.31-7.2 6.3-10.046 10.017-9.009 11.744-18.882 17.817-32.18 6.188a8.031 8.031 0 0 0 -9.125-1.525c-20.868 8.577-33.907-3.771-43.291-18.883-10.909-17.472-24.38-26.8-45.219-24.236-10.507 1.151-12.493 12.032-19.689 17.242-10.017 7.225-18.565 10.679-30.77 3.684-10.074-5.785-22.192-8.4-33.849-2.562-8.29 4.174-16.148 3.915-23.747-1.007-9.585-6.246-19.659-6.044-29.7-2.129-9.3 3.627-18.48 3.079-27.862 1.065-3.742 1.324-8.06 1.842-9.643 6.418 7.282 12.09 9.009 26.8 15 38.6 12.118 23.8 29.791 46.371 57.883 51.7 21.818 4.116 27.547 19.861 34.4 35.2 6.1 13.615 6.822 28.295 6.477 44.039-.633 30.338-7.4 60.878-.2 91.244 3.339 4.289 9.844 2.36 13.269 7.081 4.433 6.073 8.347 5.555 16.608 2.936 18.882-5.987 35.865-21.933 58.258-14.363 2.82.95 4.547-1.928 5.728-4.865 7.627-18.853 7.714-18.825 24.754-10.736 4.289-15 6.879-31.806 18.738-42.14 16-14.017 36.671-22.163 52.358-37.131.776-.748 3.4.49 5.21.806.028.028.028.028.057.028 1.181-2.821 2.821-5.641 4.174-8.462.518-1.036.978-2.1 1.381-3.138 2.159-5.814 1.784-11.37-8.29-16.09-2.706-1.266-3.109-3.972-1.842-7.253 9.412-24.783 23.055-45.047 51.868-49.652.317-6.62-.23-13.413 1.122-19.832 6.41-31.003 2.841-29.505-24.447-41.767z" transform="translate(-21.24 -29.246)"/><path d="m934.616 746.461c7.281 12.085 9 26.8 15 38.583 12.12 23.814 29.774 46.393 57.888 51.706 21.819 4.123 27.535 19.862 34.387 35.189 6.094 13.63 6.823 28.319 6.484 44.057-.651 30.327-7.414 60.877-.218 91.238-7.433 13.609-14.327 13.922-29.419 11.607-20.1-3.083-38.831-12.134-59.882-11.394-13.432.472-25.063-8.6-37.658-12.963-3.444-1.191-7.781-4.587-10.084-3.512-14.4 6.729-20.7-4.188-28.389-12.021-8.431-8.595-8.343-18.258-6.085-29.88 2.889-14.867-7.638-24.808-18.612-33.3-1.828-1.414-3.912-2.5-5.879-3.737-.117-4.635-3.271-5.04-6.864-4.995-6.2.08-12.182-.569-16.711-5.538 6.877-16.421 9.169-33.928 11.55-51.309 3.855-28.132 10.045-55.756 10.812-84.6a431.151 431.151 0 0 1 6.543-62.075c.991-5.673-2.218-13.809 5.459-15.849 6.374-1.694 5.953 7.306 10.079 10.146 1.037.714 1.181 2.963 2.211 3.4 9.3 3.987 3.981 19.842 16.974 20.681 1.411 6.829-4.469 21.34 12.489 11.794 8.157 8.494 20.329 7.631 29.925 12.772z" transform="translate(0 -22.062)"/><path d="m1577.648 808.924c-7.916-.346-8.923-6.362-8.865-10.535.231-16.349-8.031-30.05-12.319-44.961-5.411-18.8-30.77-32.007-50.054-28.87-8.606 1.411-17.386 11.657-27.2 1.785-9.844-9.9-15.054.087-19.458 6.131-5.526 7.6-14.017 11.024-20.494 17.155-3.569 3.425-5.67-.259-6.3-4.059-2.5-14.621-12.636-15.226-24.61-14.1-12.78 1.209-25.676 1.87-35.087-10.247-1.986-2.562-6.707-3.253-10.334-4.317-22.566-6.649-42.484-17.443-58.057-35.433 1.181 2.5 3.483 5.124 3.282 7.484-2.1 23.89 11.024 42.514 21.07 62.23 5.095 4.662 10.909 7.57 17.385 10.477 27.287 12.262 30.857 10.765 24.437 41.766-1.352 6.418-.806 13.212-1.122 19.832 22.739-3.2 41.563 9.873 62.288 15.083 16.637 4.173 32.929 9.786 49.709 13.268 16.579 3.455 31.518-3.942 46.139-10.592 2.476-1.123 4.577-4.346 7.312-2.13 10.678 8.578 12.521-.72 15.774-7.4 9.01-9.643 25.906-10.132 33.619-.95 2.619 1.266 5.267 2.533 7.886 3.8 5.867-14.335.11-24.755-15.001-25.417z" transform="translate(-79.48 -21.062)"/><path d="m1588.1 875.334c-3.483 4.98-8.232 9.585-3.339 16.205-9.009 4.261-12.923 16.608-25.618 15.6-1.611-.115-6.447 3.943-6.073 8.577.143 1.641 2.044 4.721-.144 4.663-13.068-.4-11.974 17.04-24.552 18.45-5.987.662-11.111 9.125-9.239 15.486 2.5 8.433-1.843 12.233-7.426 13.038-8.952 1.325-12.175 10.161-22.279 12-15.169 2.763-27.085-3.569-40.239-5.958a59.577 59.577 0 0 1 -13.672-4.749c-3.108-3.4-5.555 1.67-8.462.662-.95-.26-1.9-.547-2.85-.806a6.862 6.862 0 0 0 -.633-2.619c-.719-6.937-1.611-13.729-10.678-14.622-.231-2.245.317-4.864-2.649-5.872 5.67-6.707-2.821-5.958-4.75-8.231-3.368-3.973-8.548-.806-9.239 1.755-1.813 7.023-9.325 7.2-12.636 12.664-3.655 6.016-11.4 4.087-16.176 1.18-2.965-1.785-6.044-7.57-.259-11.859 3.627-2.735 2.331-5.987-.662-8.29-2.36-1.843-5.9-2.332-7.685.287-10.074 14.852-21.5 12.867-33.706 3.253 1.181-2.821 2.821-5.641 4.174-8.462.518-1.036.978-2.1 1.381-3.138 2.159-5.814 1.784-11.37-8.29-16.09-2.706-1.266-3.109-3.972-1.842-7.253 9.412-24.783 23.055-45.046 51.868-49.652 22.739-3.2 41.563 9.872 62.288 15.083 16.637 4.173 32.929 9.786 49.709 13.268 16.579 3.455 31.518-3.942 46.14-10.592 2.476-1.123 4.577-4.346 7.311-2.13 10.678 8.578 12.521-.72 15.774-7.4 9.01-9.643 25.905-10.132 33.619-.95 2.619 1.266 5.267 2.533 7.886 3.8 2.039 6.629-4.265 8.73-7.052 12.702z" transform="translate(-81.983 -49.362)"/><path d="m1326.113 951.474c1.18-2.793 2.849-5.613 4.231-8.434-1.353 2.821-2.993 5.641-4.174 8.462-.029-.002-.029-.002-.057-.028z" transform="translate(-83.026 -64.711)"/><path d="m1133.049 702.615c-10.5 1.151-12.5 12.028-19.694 17.222-10 7.223-18.569 10.678-30.759 3.691-10.093-5.785-22.2-8.395-33.848-2.547-8.281 4.159-16.154 3.89-23.74-1.034-9.6-6.234-19.666-6.026-29.72-2.117-9.3 3.617-18.481 3.084-27.85 1.065 10.353-19.095 15.751-39.965 21.735-60.606.742-2.559 1.137-6.941-.282-8.126-11.687-9.764-3-15.813 3.507-22.464a12.333 12.333 0 0 0 3.2-4.58c9.705-32.059 42.266-36.7 64.689-53.434 2.241-1.673 6.78-1.737 9.7-.814 18.676 5.9 34.9-2.549 51.649-8.112 7.786 10.618 6.168 21.545 6.407 34.272.36 19.183-2.412 42.894 18.225 58.568 11.385 8.647 9.423 20.123-.87 30.208-5.474 5.365-9.886 11.459-12.349 18.808z" transform="translate(-23.173 -.919)"/><path d="m1163.935 701.7c2.463-7.349 6.875-13.443 12.352-18.809 10.292-10.086 12.254-21.561.87-30.208-20.637-15.674-17.865-39.385-18.225-58.568-.239-12.727 1.38-23.653-6.407-34.272 19.58-7.5 36.672-6.473 54.13 8.132 13.183 11.03 28.74 19.9 47.807 21.6 8.863.79 16.772 9.355 13.717 21.938-1.842 7.584-3.614 15.815 3.369 22.537 2.291 2.2 1.629 4.964.287 7.816-4.121 8.754.3 14.268 7.589 18.5 1.165 2.513 3.513 5.127 3.3 7.516-2.111 23.9 11.021 42.533 21.054 62.24-3.374 3.316-7.18 6.311-10.037 10.031-9.009 11.729-18.88 17.811-32.186 6.171a7.956 7.956 0 0 0 -9.1-1.506c-20.9 8.552-33.912-3.789-43.318-18.881-10.897-17.497-24.37-26.814-45.202-24.237z" transform="translate(-54.059)"/></g></svg>