<svg height="682.249" viewBox="0 0 827.461 682.249" width="827.461" xmlns="http://www.w3.org/2000/svg" xmlns:xlink="http://www.w3.org/1999/xlink"><linearGradient id="a" gradientUnits="objectBoundingBox" x1="-.344" x2="1.221" y1="1.196" y2="-.094"><stop offset="0" stop-color="#ea4d29"/><stop offset="1" stop-color="#e8a195"/></linearGradient><linearGradient id="b" gradientUnits="objectBoundingBox" x1="-.057" x2="1.376" y1=".914" y2="-.1"><stop offset="0" stop-color="#ea4d29"/><stop offset="1" stop-color="#ed8d83"/></linearGradient><linearGradient id="c" gradientUnits="objectBoundingBox" x1="-357.93" x2="-356.956" y1="93.228" y2="93.228"><stop offset="0" stop-color="#6655da"/><stop offset="1" stop-color="#ad4aaa"/></linearGradient><linearGradient id="d" x1=".001" x2="1" xlink:href="#b" y1=".499" y2=".499"/><path d="m555.514 276.064a145.272 145.272 0 0 0 -8.869 17.418c-44.21 103.277 15.681 249.895-67.345 249.895l-7.086-4.8-105.563-7.132s-157.634-43.158-254.967-112.375c-4.983-3.52-9.784-7.132-14.4-10.789-95.323-75.435 18.697-152.287 93.716-178.666s93.178-208.886 325.059-193.936 104.054 132.582 39.455 240.385z" fill="#f9dfde" transform="translate(174.382 -34.81)"/><path d="m439.678 389.673-7.086-4.8-105.563-7.133s-157.636-43.158-254.969-112.374a275.359 275.359 0 0 1 434.96-125.588c-44.209 103.369 15.68 249.895-67.342 249.895z" fill="#e8816c" opacity=".24" transform="translate(214.006 118.894)"/><ellipse cx="174.423" cy="602.289" fill="#f9dfde" rx="159.007" ry="44.941"/><path d="m305.626 195.783c0 11.567-33.191 20.939-74.063 20.939s-74.063-9.144-74.063-20.939 33.191-20.893 74.063-20.893 74.063 9.326 74.063 20.893z" fill="#f9dfde" transform="translate(519.18 465.527)"/><path d="m388.471 83.7v371.776a11.567 11.567 0 0 1 -12.435 11.658l-7.909-.457-21.627-1.371-171.578-10.653-67.937-4.206a13.4 13.4 0 0 1 -12.435-13.212v-371.778a12.619 12.619 0 0 1 .823-4.572 11.338 11.338 0 0 1 11.612-7.269l269.05 16.641a13.441 13.441 0 0 1 12.436 13.443z" fill="url(#a)" transform="translate(294.335 32.198)"/><path d="m384.237 84.892v371.961a11.612 11.612 0 0 1 -12.481 11.7l-269-16.916a13.716 13.716 0 0 1 -12.481-13.075v-371.911a11.247 11.247 0 0 1 1.825-6.309l11.612-5.212 268.044 16.6a13.4 13.4 0 0 1 12.481 13.162z" fill="#e6e6e6" transform="translate(279.047 37.77)"/><path d="m379.291 101.044v371.732a11.612 11.612 0 0 1 -12.435 11.7l-269.05-16.683a13.441 13.441 0 0 1 -12.436-13.212v-371.781a11.521 11.521 0 0 1 6.13-10.284l1.326-.686h.274l16.367-7.361 11.612-5.212 11.929-5.257 10.652 6.675-26.927 11.612 250.123 15.5a13.441 13.441 0 0 1 12.435 13.257z" fill="url(#b)" transform="translate(261.546 33.734)"/><path d="m135.843 60.5-2.88 1.28a4.115 4.115 0 0 0 -2.423 3.886v54.862a1.372 1.372 0 0 1 -2.515.686l-11.425-15.914a1.372 1.372 0 0 0 -2.149 0l-13.35 14.63a1.417 1.417 0 0 1 -2.377-1.052v-55.132a4.206 4.206 0 0 1 2.377-3.84l2.789-1.326z" opacity=".1" transform="translate(309.23 50.093)"/><path d="m141.21 64v.6l-9.829-.6a3.977 3.977 0 0 0 -1.692 3.337v54.863a1.28 1.28 0 0 1 -2.423.686l-11.429-15.91a1.372 1.372 0 0 0 -2.149 0l-13.35 14.858a1.417 1.417 0 0 1 -2.332-1.234v-55.226a4.16 4.16 0 0 1 2.377-3.795l6.766-3.2a9.738 9.738 0 0 1 4.572-.869l24.733 1.509a5.075 5.075 0 0 1 4.756 4.981z" fill="#507d82" transform="translate(306.651 46.224)"/><path d="m214.836 73.4v27.888a17.51 17.51 0 0 1 -18.927 17.738l-51.021-3.155-23.956 17.053a1.874 1.874 0 0 1 -2.88-1.6v-48.234a17.6 17.6 0 0 1 18.973-17.739l74.612 4.572a3.52 3.52 0 0 1 3.199 3.477z" fill="#f8f8ff" transform="translate(378.272 74.089)"/><path d="m135.636 77.086a6.949 6.949 0 0 1 -7.5 7.041 8.138 8.138 0 0 1 -7.5-7.955 6.949 6.949 0 0 1 7.5-6.995 8 8 0 0 1 7.5 7.909z" fill="#507d82" transform="translate(387.523 87.865)"/><path d="m141.95 77.522a6.949 6.949 0 0 1 -7.5 6.995 8.092 8.092 0 0 1 -7.45-7.955 6.949 6.949 0 0 1 7.5-6.995 8.046 8.046 0 0 1 7.452 7.955z" fill="#ea4d29" transform="translate(410.24 89.258)"/><path d="m148.264 77.909a6.949 6.949 0 0 1 -7.406 6.995 8.046 8.046 0 0 1 -7.5-7.909 6.995 6.995 0 0 1 7.5-7.04 8.092 8.092 0 0 1 7.406 7.955z" fill="#ffc507" transform="translate(432.957 90.654)"/><path d="m171.558 96.929.686 5.9-15.453-5.806a1.509 1.509 0 0 0 -1.1 0l-35.111 15.361-11.7-10.515-14.264 1.006-1.234 14.95 7.772 4.572 52.027 29.762a1.417 1.417 0 0 0 1.417 0l62.402-31.228a.686.686 0 0 0 .366-.64v-15.591z" fill="#aeb9ff" transform="translate(290.157 187.026)"/><path d="m156.993 159.938-65.1-37.626c-.731-.411-.32-1.463.686-1.92l67.571-29.625a1.783 1.783 0 0 1 1.372 0l74.657 28.025c1.326.457 1.737 1.646.732 2.149l-78.09 39.089a1.966 1.966 0 0 1 -1.829-.091z" fill="#f2f2f2" transform="translate(283.509 164.568)"/><path d="m135.076 105.961a3.612 3.612 0 0 1 -4.572 2.332s-10.881-3.749-18.287 1.509c-5.806 3.977-8.686 12.07-8.686 24.048v79.092a8.229 8.229 0 0 1 3.886 6.9v20.07a7.178 7.178 0 0 1 -7.772 7.223 8.275 8.275 0 0 1 -8.184-8v-20.07a7.041 7.041 0 0 1 3.886-6.4v-79.09c0-14.63 3.932-24.733 11.749-30.082 10.881-7.361 24.733-2.469 25.373-2.286a4.115 4.115 0 0 1 2.606 4.755z" fill="#fff" transform="translate(283.298 196.053)"/><path d="m203.628 140.539a37.44 37.44 0 0 0 1.6-9.875c0-1.92 0-3.932 0-5.44a18.978 18.978 0 0 0 -2.7-4.572 32 32 0 0 0 1.463-4.572c.229-1.052.457-2.1.594-3.2a17.978 17.978 0 0 0 0-2.24 8.092 8.092 0 0 0 0-1.051 10.325 10.325 0 0 0 0-1.189 32 32 0 0 0 -10.285-22.129 36.263 36.263 0 0 0 -3.932-3.063 27.109 27.109 0 0 0 -2.968-1.828 30.311 30.311 0 0 0 -12.8-3.657 24.869 24.869 0 0 0 -6.675.411 27.431 27.431 0 0 0 -20.116 14.355 28.117 28.117 0 0 0 -3.246 13.35 32.551 32.551 0 0 0 23.362 30.722 29.579 29.579 0 0 0 6.675 1.139 29.031 29.031 0 0 0 13.715-2.423c.549 1.006 1.28 2.1 2.057 3.292a25.793 25.793 0 0 1 2.24 4.069l.457 1.28 14.857 54.182c.549 2.24 1.051 3.977 1.92 6.721v-48.967zm-2.194-13.439a10.194 10.194 0 0 1 -.411 2.057c-.411 0-.914-1.1-1.509-3.337a20.248 20.248 0 0 0 1.326-2.1 22.877 22.877 0 0 0 .594 3.383z" opacity=".1" transform="translate(472.96 118.226)"/><path d="m262.13 341-11.612 4.572c-8-17.19-16.23-34.288-24.322-51.387l-24.733-51.25s-10.835-19.522-11.2-20.3-1.874-8.366-4.069-18.79c-1.829-9.144-4.206-20.253-6.583-31.18-.823-3.932-1.646-7.818-2.515-11.567-.411-1.829-.777-3.566-1.189-5.258a146.291 146.291 0 0 0 -6.767-25.74s26.928-.594 39.775-.411h5.029c1.189 0 1.737 0 1.737.274l2.286 11.018 1.874 8.778-.366 10.652-.594 21.167v.869l-.274 7.178v1.051l-.366 10.287-.366 8.732a17.877 17.877 0 0 0 .5 4.343 1.7 1.7 0 0 0 .229 1.051 9.736 9.736 0 0 0 .411 1.28l1.143 3.383 4.572 13.441 18.564 53.807c6.306 17.97 12.436 36.257 18.836 54z" fill="#b73721" transform="translate(560.756 303.948)"/><path d="m165.429 235.763a22.542 22.542 0 0 0 0 2.377v1.829l.457 3.337 1.92 13.4 15.361 107.071 10.789-.732.64-108.169v-19.296s2.652-8.824 6.355-20.893c2.332-7.635 5.075-16.6 7.772-25.648 1.6-4.938 3.109-9.875 4.572-14.63 4.846-15.818 9.144-29.58 10.424-33.877l.457-1.417-51.57-12.435-3.932 37.763-1.006 9.646-2.789 26.654v30.4a41.64 41.64 0 0 0 .549 4.618z" fill="#ea4d29" transform="translate(545.54 293.332)"/><path d="m232.476 244.177a3.7 3.7 0 0 0 -.96.457h-.416l-1.829.732-1.646.549h-.594a5.717 5.717 0 0 0 -1.691.411 34.534 34.534 0 0 1 -4.069.64h-1.737a51.991 51.991 0 0 1 -6.08.32h-3.654a25.375 25.375 0 0 1 -4.892-.32l-4.023-.274-3.932-.5-4.206-.64a16.955 16.955 0 0 1 -3.657-.594h-.366l-2.424-.458h-.823c-1.006-.274-2.012-.411-2.926-.64-2.1-.457-4.023-1.006-5.76-1.417a42.457 42.457 0 0 1 -4.983-1.646 20.619 20.619 0 0 1 -5.212-2.469 1.508 1.508 0 0 1 -.686-.823.686.686 0 0 1 0-.274.912.912 0 0 0 0-.32 2.2 2.2 0 0 1 0-.823v-2.888c0-3.7 0-9.144.274-15.773.274-7.5.869-16.458 1.646-25.831s1.509-18.287 2.469-27.431c0-1.28.32-2.56.411-3.886a40.937 40.937 0 0 1 .686-4.572c.869-7.5 1.966-14.264 2.972-19.75a.912.912 0 0 0 0-.32c.229-1.143.457-2.149.594-3.155a63.174 63.174 0 0 1 1.92-6.858 10.328 10.328 0 0 1 .869-1.874 9.964 9.964 0 0 1 .64-1.143 56.958 56.958 0 0 1 4.572-9.144 19.111 19.111 0 0 1 3.383-3.932 23.642 23.642 0 0 1 2.332-1.92 20.716 20.716 0 0 1 3.475-1.874 19.527 19.527 0 0 1 3.7-1.326 35.072 35.072 0 0 1 6.035-1.234h1.326a3.566 3.566 0 0 1 2.332.5 7.5 7.5 0 0 1 1.326.731 4.8 4.8 0 0 1 1.189.594 30.228 30.228 0 0 1 3.155 1.874c.869.549 1.646 1.143 2.423 1.737 17.556 13.258 16.641 35.98 14.9 58.885a272.6 272.6 0 0 0 -1.235 27.431c0 6.812 4.572 35.8 5.3 45.718.054 2.113.096 3.53-.128 3.53z" fill="#b0ffc6" transform="translate(549.081 209.3)"/><path d="m208.738 145.293c0 1.692-5.806 11.018-12.252 19.659a78.174 78.174 0 0 1 -13.715 15.681c-1.463.686-3.657-.732-6.035-3.109a88.37 88.37 0 0 1 -10.515-14.035q1.029-13.715 2.469-27.431a13.714 13.714 0 0 0 7.31-3.429c2.926-3.52 5.486-3.383 5.486-3.383l12.161-10.378v-7.818l7.772 14.264v.457a185.359 185.359 0 0 1 7.319 19.522z" opacity=".06" transform="translate(550.326 237.505)"/><path d="m190.962 186.578a42.245 42.245 0 0 1 -8.183-6.949 27.433 27.433 0 0 1 -5.166-9.144c-1.1-3.337-1.646-5.258-2.286-7.818l-14.9-53.9-.457-1.234c-3.612-8.458-10.652-9.921 1.234-21.716 1.92-2.377 4.572-2.377 4.8-.229 1.051 6.035 1.92 8.092 2.606 8.412a12.489 12.489 0 0 1 .366-2.1l3.52-1.829v5.395a37.905 37.905 0 0 1 -1.6 9.921l21.259 52.164 1.966 6.675a10.787 10.787 0 0 0 2.332 3.337 14.538 14.538 0 0 0 3.383 2.423 17.694 17.694 0 0 0 4.572 1.28l15.544 6.126c-.366 2.1-.732 0-.823 2.24a15.445 15.445 0 0 1 -.274 3.566 2.744 2.744 0 0 0 0 1.737c0 5.075-.366 9.144-.366 9.144h-.869l-17.331-4.579a35.2 35.2 0 0 1 -9.326-2.926z" fill="#ccc" transform="translate(508.759 140.9)"/><path d="m168.716 119.365h-.366c.274-2.56.869-8.595 1.554-14.355-.457 7.223-.823 14.264-.823 14.264a.731.731 0 0 0 -.365.091z" fill="#ccc" transform="translate(557.934 215.931)"/><path d="m196.97 179.142a15.772 15.772 0 0 1 .732 12.207h-32.323c-1.554 0-1.691-2.56-.411-3.475 7.818-3.292 14.95-5.578 18.79-10.424 5.349 1.234 8.869 3.2 13.212 1.692z" fill="#fff" transform="translate(542.755 474.672)"/><path d="m164.166 181.693.549 1.1h33.191l.411-1.143a1.052 1.052 0 0 0 -.96-1.417h-32.277a1.006 1.006 0 0 0 -.914 1.463z" fill="#24e2d3" transform="translate(542.597 484.601)"/><path d="m211.614 175.61a15.818 15.818 0 0 1 4.3 11.475l-30.86 9.6c-1.509.457-2.377-1.966-1.417-3.2 6.492-5.44 12.664-9.692 14.9-15.5 5.442-.592 9.374.322 13.077-2.375z" fill="#fff" transform="translate(611.089 468.1)"/><path d="m183.694 188.922.869.914 31.774-9.6v-1.189a1.051 1.051 0 0 0 -1.326-1.1l-30.951 9.144a1.006 1.006 0 0 0 -.366 1.829z" fill="#24e2d3" transform="translate(611.121 476.321)"/><path d="m226.842 177.543-.366 10.652-.594 21.167v.869l-.274 7.178a4.572 4.572 0 0 1 -2.926-1.6c-5.3-5.3-9.738-12.481-12.618-14.9s-11.429-3.932-14.447-9.6c-2.7-4.938-7.726-5.806-12.664-7.818l-1.783-.823a138.937 138.937 0 0 1 -13.99-8.824l25.92-47.825 23.27-4.069c1.1 1.1-.823 13.715 2.377 17.373s.731 4.023.731 8.549-1.829 2.606.914 8.229c0 .457.411.869.594 1.372 1.463 3.475 2.743 7.909 4.023 11.292z" opacity=".06" transform="translate(553.755 276.437)"/><path d="m245.584 141.359a42.934 42.934 0 0 1 -3.337 10.2 22.26 22.26 0 0 1 -2.1 3.429 30.354 30.354 0 0 1 -4.3 4.572c-2.743 2.286-4.3 3.429-6.4 4.983l-44.392 34.106-.96.869a31.738 31.738 0 0 0 -3.2 3.886c-3.475 4.938-5.12 8.458-17.419 3.155-2.926-.914-3.886-3.383-1.966-4.572 5.166-3.2 6.766-4.8 6.812-5.578a17.516 17.516 0 0 0 -2.057.457c-4.572.777-5.577 0-3.017-2.56 1.326-.686 3.2-1.326 4.938-2.149a15 15 0 0 1 4.252-1.372 53.8 53.8 0 0 1 5.44-.869l40.415-39.317 5.395-4.572a10.467 10.467 0 0 0 2.24-3.292 16.047 16.047 0 0 0 .914-4.069 20.8 20.8 0 0 0 -.457-4.572l-4.572-14.9a45.348 45.348 0 0 0 6.766-1.829c1.143-.274 2.286-.777 3.429-1.143h.229a2.972 2.972 0 0 0 1.463-.411l1.737-.64 1.6-.594 5.166-1.829v1.189l2.423 17.739a36.3 36.3 0 0 1 .958 9.683z" fill="#ccc" transform="translate(529.938 243.541)"/><path d="m189.215 112.86v.64l-13.715 3.932z" fill="#ccc" transform="translate(583.472 243.97)"/><path d="m193.811 110.183-22.036-7.223-7.955 18.516 19.48 12.481z" fill="#b0ffdf" transform="translate(541.754 208.609)"/><path d="m221.272 122.107a56.963 56.963 0 0 1 -15.772 18.653 89.653 89.653 0 0 0 -16.093 14.173l-3.566 6.995-7.589 5.943-6.4 5.76c-3.52-1.189-5.715-2.423-5.943-3.337a.411.411 0 0 1 0-.229.6.6 0 0 0 0-.274 4.573 4.573 0 0 1 0-.914c0-.732 0-1.737 0-2.835l.411-.411 44.392-34.106c2.1-1.554 3.657-2.7 6.4-4.983a30.358 30.358 0 0 0 4.3-4.572 1.381 1.381 0 0 1 -.14.137z" opacity=".06" transform="translate(549.13 276.509)"/><path d="m170.28 125.869a4.848 4.848 0 0 0 1.234.594 29.082 29.082 0 0 0 4.16.823 25.054 25.054 0 0 0 11.155-1.326 36.162 36.162 0 0 0 10.058-5.578l.96-.777a8.641 8.641 0 0 1 -.64-6.949 4.577 4.577 0 0 1 .32-.914 14.859 14.859 0 0 1 2.88-4.252s-2.377-1.234-5.578-2.743a3.475 3.475 0 0 1 -.732-.274c-7.543-3.337-19.064-7.452-17.784-.457a28.438 28.438 0 0 1 0 10.378 25.7 25.7 0 0 1 -2.24 6.675s-.366.549-.732 1.052-.457.686-.732 1.052a9.553 9.553 0 0 1 -2.332 2.7z" fill="#ccc" transform="translate(564.828 198.729)"/><path d="m218.063 127.186c-3.292 4.023-8.183 8.321-14.538 14.63-1.509.777-3.2 1.417-5.12 2.194l-1.234.366q-2.926.96-6.035 1.646c-1.463.32-2.926.549-4.343.731a23.365 23.365 0 0 1 -2.515 0 25.054 25.054 0 0 1 -6.995-.366 10.838 10.838 0 0 1 -2.972-1.006c-4.023-1.829-4.572-7.863-4.069-14.813.731-4.115 2.469-11.109 3.886-16.687 1.189-4.572 2.194-8.138 2.423-8.5s.549-1.417.869-2.057a13.707 13.707 0 0 0 .686-1.417 3.4 3.4 0 0 1 .549-1.326v-1.649l1.006-.32a21.623 21.623 0 0 0 4.572-2.652l2.972-.594a18.288 18.288 0 0 1 5.989-3.795c13.167-2.606 19.339 6.218 22.219 15.773a32.452 32.452 0 0 1 .914 3.475c.457 2.012.777 4.023 1.006 5.852a5.612 5.612 0 0 0 0 .869c0 1.554.32 2.972.366 4.206a38.405 38.405 0 0 1 .364 5.44z" fill="#e6e6e6" transform="translate(564.134 166.279)"/><path d="m231.288 180.574c-3.063 9.784-5.12 11.018-4.572 22.265s-10.789 19.659-16.6 6.629c-10.058-22.859-2.515-32.323-7.589-39.729s-8.824-11.7-10.012-16.916a26.424 26.424 0 0 1 -8.275-5.029 9.143 9.143 0 0 1 -.64-1.554c-1.463-5.44 4.572-17.464 8.138-22.539-14.9-4.572-15.59-15.91-15.59-15.91s-.5-.594-1.829 1.463a26.415 26.415 0 0 1 -3.383 4.572 28.026 28.026 0 0 1 4.572-14.081 13.019 13.019 0 0 1 1.051-1.189 7.589 7.589 0 0 1 4.572-2.652l2.972-.594c.411 0 2.743-3.429 5.989-3.795 13.258-1.554 20.207 5.075 22.219 15.773.229 1.189.686 2.332.914 3.475.411 2.012.731 4.023 1.006 5.852a5.625 5.625 0 0 0 0 .869c0 1.554.274 2.972.366 4.206v5.166s1.417 18.287 9.738 23.682 9.97 20.298 6.953 30.036z" fill="#5b2b1d" transform="translate(567.185 166.929)"/><path d="m206.331 106.638a27.934 27.934 0 0 1 -30.083 28.162 32.414 32.414 0 0 1 -30.037-32 27.888 27.888 0 0 1 30.037-28.162 32.46 32.46 0 0 1 30.083 32z" fill="#66a0a3" transform="translate(478.853 107.141)"/><path d="m206.311 106.65a27.842 27.842 0 0 1 -30.037 28.117 32.368 32.368 0 0 1 -30.082-32 27.888 27.888 0 0 1 30.082-28.117 32.323 32.323 0 0 1 30.037 32z" fill="#65a0a3" transform="translate(478.781 107.173)"/><ellipse cx="29.122" cy="30.951" fill="#64a1a4" rx="29.122" ry="30.951" transform="matrix(.707 -.707 .707 .707 612.511 210.695)"/><ellipse cx="29.122" cy="30.951" fill="#63a1a4" rx="29.122" ry="30.951" transform="matrix(.707 -.707 .707 .707 612.433 210.681)"/><ellipse cx="29.122" cy="30.951" fill="#62a2a4" rx="29.122" ry="30.951" transform="matrix(.707 -.707 .707 .707 612.387 210.746)"/><ellipse cx="29.122" cy="30.951" fill="#61a2a5" rx="29.122" ry="30.951" transform="matrix(.707 -.707 .707 .707 612.277 210.765)"/><ellipse cx="29.122" cy="30.951" fill="#60a3a5" rx="29.122" ry="30.951" transform="matrix(.707 -.707 .707 .707 612.231 210.784)"/><ellipse cx="29.122" cy="30.951" fill="#5fa3a5" rx="29.122" ry="30.951" transform="matrix(.707 -.707 .707 .707 612.166 210.803)"/><ellipse cx="29.122" cy="30.951" fill="#5ea4a6" rx="29.122" ry="30.951" transform="matrix(.707 -.707 .707 .707 612.121 210.822)"/><ellipse cx="29.122" cy="30.951" fill="#5da4a6" rx="29.122" ry="30.951" transform="matrix(.707 -.707 .707 .707 612.043 210.873)"/><ellipse cx="29.122" cy="30.951" fill="#5ca5a6" rx="29.122" ry="30.951" transform="matrix(.707 -.707 .707 .707 611.965 210.86)"/><ellipse cx="29.122" cy="30.951" fill="#5ba5a7" rx="29.122" ry="30.951" transform="matrix(.707 -.707 .707 .707 611.919 210.924)"/><ellipse cx="29.122" cy="30.951" fill="#5aa6a7" rx="29.122" ry="30.951" transform="matrix(.707 -.707 .707 .707 611.854 210.943)"/><ellipse cx="29.122" cy="30.951" fill="#59a6a7" rx="29.122" ry="30.951" transform="matrix(.707 -.707 .707 .707 611.809 210.962)"/><ellipse cx="29.122" cy="30.951" fill="#58a7a8" rx="29.122" ry="30.951" transform="matrix(.707 -.707 .707 .707 611.698 210.981)"/><ellipse cx="29.122" cy="30.951" fill="#57a7a8" rx="29.122" ry="30.951" transform="matrix(.707 -.707 .707 .707 611.653 211)"/><ellipse cx="29.122" cy="30.951" fill="#56a8a8" rx="29.122" ry="30.951" transform="matrix(.707 -.707 .707 .707 611.542 211.019)"/><ellipse cx="29.122" cy="30.951" fill="#55a8a9" rx="29.122" ry="30.951" transform="matrix(.707 -.707 .707 .707 611.496 211.038)"/><ellipse cx="29.122" cy="30.951" fill="#54a9a9" rx="29.122" ry="30.951" transform="matrix(.707 -.707 .707 .707 611.464 211.07)"/><ellipse cx="29.122" cy="30.951" fill="#53a9aa" rx="29.122" ry="30.951" transform="matrix(.707 -.707 .707 .707 611.386 211.122)"/><ellipse cx="29.122" cy="30.951" fill="#52aaaa" rx="29.122" ry="30.951" transform="matrix(.707 -.707 .707 .707 611.34 211.141)"/><ellipse cx="29.122" cy="30.951" fill="#51aaaa" rx="29.122" ry="30.951" transform="matrix(.707 -.707 .707 .707 611.23 211.159)"/><ellipse cx="29.122" cy="30.951" fill="#50abab" rx="29.122" ry="30.951" transform="matrix(.707 -.707 .707 .707 611.184 211.178)"/><ellipse cx="29.122" cy="30.951" fill="#4fabab" rx="29.122" ry="30.951" transform="matrix(.707 -.707 .707 .707 611.12 211.197)"/><ellipse cx="29.122" cy="30.951" fill="#4eabab" rx="29.122" ry="30.951" transform="matrix(.707 -.707 .707 .707 611.074 211.216)"/><ellipse cx="29.122" cy="30.951" fill="#4dacac" rx="29.122" ry="30.951" transform="matrix(.707 -.707 .707 .707 610.996 211.203)"/><ellipse cx="29.122" cy="30.951" fill="#4cacac" rx="29.122" ry="30.951" transform="matrix(.707 -.707 .707 .707 610.918 211.3)"/><ellipse cx="29.122" cy="30.951" fill="#4badac" rx="29.122" ry="30.951" transform="matrix(.707 -.707 .707 .707 610.84 211.287)"/><ellipse cx="29.122" cy="30.951" fill="#4aadad" rx="29.122" ry="30.951" transform="matrix(.707 -.707 .707 .707 610.808 211.338)"/><ellipse cx="29.122" cy="30.951" fill="#49aead" rx="29.122" ry="30.951" transform="matrix(.707 -.707 .707 .707 610.762 211.357)"/><ellipse cx="29.122" cy="30.951" fill="#48aead" rx="29.122" ry="30.951" transform="matrix(.707 -.707 .707 .707 610.652 211.376)"/><ellipse cx="29.122" cy="30.951" fill="#47afae" rx="29.122" ry="30.951" transform="matrix(.707 -.707 .707 .707 610.606 211.395)"/><ellipse cx="29.122" cy="30.951" fill="#46afae" rx="29.122" ry="30.951" transform="matrix(.707 -.707 .707 .707 610.528 211.381)"/><ellipse cx="29.122" cy="30.951" fill="#45b0ae" rx="29.122" ry="30.951" transform="matrix(.707 -.707 .707 .707 610.45 211.478)"/><ellipse cx="29.122" cy="30.951" fill="#45b0af" rx="29.122" ry="30.951" transform="matrix(.707 -.707 .707 .707 610.418 211.465)"/><ellipse cx="29.122" cy="30.951" fill="#44b1af" rx="29.122" ry="30.951" transform="matrix(.707 -.707 .707 .707 610.34 211.516)"/><ellipse cx="29.122" cy="30.951" fill="#43b1af" rx="29.122" ry="30.951" transform="matrix(.707 -.707 .707 .707 610.262 211.503)"/><ellipse cx="29.122" cy="30.951" fill="#42b2b0" rx="29.122" ry="30.951" transform="matrix(.707 -.707 .707 .707 610.184 211.554)"/><ellipse cx="29.122" cy="30.951" fill="#41b2b0" rx="29.122" ry="30.951" transform="matrix(.707 -.707 .707 .707 610.138 211.573)"/><ellipse cx="29.122" cy="30.951" fill="#40b3b0" rx="29.122" ry="30.951" transform="matrix(.707 -.707 .707 .707 610.073 211.592)"/><ellipse cx="29.122" cy="30.951" fill="#3fb3b1" rx="29.122" ry="30.951" transform="matrix(.707 -.707 .707 .707 610.028 211.657)"/><ellipse cx="29.122" cy="30.951" fill="#3eb4b1" rx="29.122" ry="30.951" transform="matrix(.707 -.707 .707 .707 609.95 211.643)"/><ellipse cx="29.122" cy="30.951" fill="#3db4b1" rx="29.122" ry="30.951" transform="matrix(.707 -.707 .707 .707 609.871 211.695)"/><ellipse cx="29.122" cy="30.951" fill="#3cb5b2" rx="29.122" ry="30.951" transform="matrix(.707 -.707 .707 .707 609.793 211.681)"/><ellipse cx="29.122" cy="30.951" fill="#3bb5b2" rx="29.122" ry="30.951" transform="matrix(.707 -.707 .707 .707 609.716 211.732)"/><ellipse cx="29.122" cy="30.951" fill="#3ab5b2" rx="29.122" ry="30.951" transform="matrix(.707 -.707 .707 .707 609.683 211.719)"/><ellipse cx="29.122" cy="30.951" fill="#39b6b3" rx="29.122" ry="30.951" transform="matrix(.707 -.707 .707 .707 609.605 211.77)"/><ellipse cx="29.122" cy="30.951" fill="#38b6b3" rx="29.122" ry="30.951" transform="matrix(.707 -.707 .707 .707 609.559 211.835)"/><ellipse cx="29.122" cy="30.951" fill="#37b7b3" rx="29.122" ry="30.951" transform="matrix(.707 -.707 .707 .707 609.481 211.822)"/><ellipse cx="29.122" cy="30.951" fill="#36b7b4" rx="29.122" ry="30.951" transform="matrix(.707 -.707 .707 .707 609.403 211.873)"/><ellipse cx="29.122" cy="30.951" fill="#35b8b4" rx="29.122" ry="30.951" transform="matrix(.707 -.707 .707 .707 609.371 211.859)"/><ellipse cx="29.122" cy="30.951" fill="#34b8b5" rx="29.122" ry="30.951" transform="matrix(.707 -.707 .707 .707 609.293 211.911)"/><ellipse cx="29.122" cy="30.951" fill="#33b9b5" rx="29.122" ry="30.951" transform="matrix(.707 -.707 .707 .707 609.215 211.897)"/><ellipse cx="29.122" cy="30.951" fill="#32b9b5" rx="29.122" ry="30.951" transform="matrix(.707 -.707 .707 .707 609.137 211.949)"/><ellipse cx="29.122" cy="30.951" fill="#31bab6" rx="29.122" ry="30.951" transform="matrix(.707 -.707 .707 .707 609.059 211.981)"/><ellipse cx="29.122" cy="30.951" fill="#30bab6" rx="29.122" ry="30.951" transform="matrix(.707 -.707 .707 .707 609.059 212)"/><ellipse cx="29.122" cy="30.951" fill="#2fbbb6" rx="29.122" ry="30.951" transform="matrix(.707 -.707 .707 .707 608.949 212.019)"/><ellipse cx="29.122" cy="30.951" fill="#2ebbb7" rx="29.122" ry="30.951" transform="matrix(.707 -.707 .707 .707 608.903 212.038)"/><ellipse cx="29.122" cy="30.951" fill="#2dbcb7" rx="29.122" ry="30.951" transform="matrix(.707 -.707 .707 .707 608.825 212.089)"/><ellipse cx="29.122" cy="30.951" fill="#2cbcb7" rx="29.122" ry="30.951" transform="matrix(.707 -.707 .707 .707 608.747 212.076)"/><ellipse cx="29.122" cy="30.951" fill="#2bbdb8" rx="29.122" ry="30.951" transform="matrix(.707 -.707 .707 .707 608.669 212.127)"/><ellipse cx="29.122" cy="30.951" fill="#2abdb8" rx="29.122" ry="30.951" transform="matrix(.707 -.707 .707 .707 608.637 212.159)"/><ellipse cx="29.122" cy="30.951" fill="#29beb8" rx="29.122" ry="30.951" transform="matrix(.707 -.707 .707 .707 608.591 212.178)"/><ellipse cx="29.122" cy="30.951" fill="#28beb9" rx="29.122" ry="30.951" transform="matrix(.707 -.707 .707 .707 608.481 212.197)"/><path d="m205.409 106.75a27.842 27.842 0 0 1 -30.037 28.117 32.368 32.368 0 0 1 -30.083-32 27.888 27.888 0 0 1 30.082-27.8 32.323 32.323 0 0 1 30.037 31.683z" fill="#27bfb9" transform="translate(475.568 108.674)"/><path d="m205.4 106.747a27.934 27.934 0 0 1 -30.082 28.162 32.414 32.414 0 0 1 -30.037-32 27.888 27.888 0 0 1 30.037-27.842 32.46 32.46 0 0 1 30.082 31.68z" fill="#26bfb9" transform="translate(475.533 108.677)"/><path d="m205.379 106.8a27.842 27.842 0 0 1 -30.037 28.117 32.368 32.368 0 0 1 -30.082-32 27.888 27.888 0 0 1 30.082-27.842 32.323 32.323 0 0 1 30.037 31.725z" fill="#25c0ba" transform="translate(475.461 108.674)"/><path d="m205.369 106.793a27.888 27.888 0 0 1 -30.082 28.162 32.414 32.414 0 0 1 -30.037-32 27.888 27.888 0 0 1 30.037-27.888 32.414 32.414 0 0 1 30.082 31.728z" fill="#24c0ba" transform="translate(475.425 108.677)"/><path d="m206.227 107.247a28.286 28.286 0 0 1 -30.512 28.564 32.876 32.876 0 0 1 -30.465-32.459 28.286 28.286 0 0 1 30.465-28.286 32.877 32.877 0 0 1 30.512 32.181z" fill="#314d4f" transform="translate(474.568 107.82)"/><path d="m161.929 111.754a5.715 5.715 0 0 1 -4.023-2.149l-9.144-12.07a4.023 4.023 0 0 1 .594-5.715 4.115 4.115 0 0 1 5.76.96l6.538 8.5 14.63-21.716a3.977 3.977 0 0 1 5.669-.869 4.16 4.16 0 0 1 1.234 5.715l-16.961 25.1a4.8 4.8 0 0 1 -4.023 2.1z" fill="#f8f8ff" transform="translate(484.669 119.031)"/><path d="m161.778 89.1s-2.743-5.989-3.749-4.572 0 6.263 0 6.263z" fill="#ccc" transform="translate(519.474 142.004)"/><path d="m259.173 168.682a1.509 1.509 0 0 1 -1.006 1.509l-26.517 10.652-49.6 19.842a1.372 1.372 0 0 1 -.731 0l-134.598-8.275-30.905-2.057a1.646 1.646 0 0 1 -.5-3.155l5.715-2.332 25.831-10.378 11.384-4.572 28.204-11.383 4.572-1.874a1.875 1.875 0 0 1 .731 0l94.91 5.943 42.289 2.606h.5l21.67 1.372h.96l5.258.366a1.6 1.6 0 0 1 1.829 1.737z" fill="#ffc507" transform="translate(7.738 400.279)"/><path d="m253.848 180.465-76.12 30.535h-.64l-160.516-10.008a1.1 1.1 0 0 1 -1.052-1.1v-27.93a1.006 1.006 0 0 1 .731-1.006l9.149-3.656 151.829 9.509h.731l61.582-24.688 13.715.823a1.646 1.646 0 0 1 .5 3.2l-1.829 20.527-1.554.5h2.88a1.672 1.672 0 1 1 .594 3.292z" fill="#f2f2f2" transform="translate(12.056 384.198)"/><path d="m257.745 159.075-165.727-10.287a1.234 1.234 0 0 0 -.686 0l-75.938 30.448a1.646 1.646 0 0 0 .5 3.2l13.715.823 151.829 9.509h.731l61.582-24.733 7.269-2.423.32 29.854 7.772 1.463v-35.889a1.646 1.646 0 0 0 -1.371-1.966z" fill="#ffc507" transform="translate(7.656 372.123)"/><path d="m176.779 191.474-165.679-10.15a1.646 1.646 0 0 1 -.5-3.2l75.932-30.494h.731l165.637 10.332a1.692 1.692 0 0 1 .549 3.2l-75.983 30.448a1.831 1.831 0 0 1 -.686-.137z" fill="#a3311d" transform="translate(-9.488 368.161)"/><path d="m248.5 152.05h-.549l1.1-.457a1.646 1.646 0 0 0 -.549-3.154l-13.715-.869-61.677 24.825h-.731l-151.83-9.509-9.143 3.614a1.143 1.143 0 0 0 -.686 1.051v7.132a1.143 1.143 0 0 0 1.052 1.143l160.516 10.012h.686l75.937-30.448a1.681 1.681 0 0 0 -.412-3.337z" fill="#f2f2f2" transform="translate(-5.088 367.946)"/><path d="m227.013 155.835-61.582 24.688a2.056 2.056 0 0 1 -.731 0l-151.83-9.51 61.582-24.733h.686z" fill="#aeb9ff" transform="translate(2.592 363.339)"/><path d="m252.818 154.52-165.682-10.332a1.234 1.234 0 0 0 -.686 0l-75.937 30.585a1.646 1.646 0 0 0 .5 3.155l13.715.869 151.829 9.509a2.054 2.054 0 0 0 .731 0l61.582-24.688 7.269-2.926.32 9.647 7.772 1.874v-15.635a1.646 1.646 0 0 0 -1.417-2.057z" fill="#a3311d" transform="translate(-9.407 355.693)"/><path d="m185.176 185.086-165.636-10.332a1.692 1.692 0 0 1 -.549-3.2l75.983-30.448a1.83 1.83 0 0 1 .686 0l165.682 10.332a1.646 1.646 0 0 1 .5 3.2l-75.937 30.448a1.874 1.874 0 0 1 -.729 0z" fill="#507d82" transform="translate(21.066 344.74)"/><path d="m257.127 151.715h-.549l1.052-.411a1.646 1.646 0 0 0 -.5-3.2l-6.583-8.824-22.4 10.652-136.793-8.412h-.731l-42.838 17.19-13.485-1.371-14.9-.594a79.961 79.961 0 0 0 0 10.469v7.361a1.143 1.143 0 0 0 1.006 1.1l160.516 10.012h.686l75.938-30.448a1.772 1.772 0 0 0 -.411-3.52z" fill="#f2f2f2" transform="translate(25.281 338.336)"/><path d="m261.537 146.374-165.774-10.286a1.416 1.416 0 0 0 -.731 0l-75.938 30.448a1.646 1.646 0 0 0 .5 3.2l13.715.823 151.829 9.509h.732l61.582-24.733 7.269-2.88-.32 17.693 8.458.594v-22.4a1.692 1.692 0 0 0 -1.326-1.966z" fill="#507d82" transform="translate(20.872 326.762)"/><path d="m206.329 252.429-49.6 19.842a1.373 1.373 0 0 1 -.731 0l-134.598-8.271v-17.83l.274-18.287v-24.463l5.9 1.554 3.566 1.006.229-.731 1.554-5.669 16.687-6.218v-22.862l12.755-6.538 10.235-2.603s9.144-2.194 10.378-4.069c3.337-5.12 20.253-5.441 21.35-5.715l30.494-14.127 17.236-.869 4.983 2.24 33.831 15.27.594 3.977.96 5.9.869 6.538 1.6 10.241.914 5.76v.686l.5 3.429.229 1.417.731 4.572.5 3.292v.686l.777 4.572 1.509 9.692.594 3.612 2.88 18.287 1.6 10.1z" opacity=".04" transform="translate(33.059 328.692)"/><path d="m41.96 148.8a24.416 24.416 0 0 0 0 3.155 16 16 0 0 0 .549 2.88 30.311 30.311 0 0 0 15.636 19.613l1.6.777a206.277 206.277 0 0 0 38.083 13.35 84.848 84.848 0 0 0 13.075 2.012l20.897 119.64 14.813-.64-9.468-123.667a22.082 22.082 0 0 0 -7.223-13.167 151.327 151.327 0 0 0 -37.809-27.431c-2.652-1.463-5.349-2.835-8.092-4.16-10.149-5.029-20.985-9.646-32-14.173-8.321 9.693-10.153 16.002-10.061 21.811z" fill="#a3311d" transform="translate(106.312 294.439)"/><path d="m100.013 185.7-38.083-5.256a15.27 15.27 0 0 1 1.97-14.264 16.641 16.641 0 0 0 14.63.274 52.986 52.986 0 0 0 22.448 12.207c3.652 2.56 2.422 6.126-.965 7.039z" fill="#ffc507" transform="translate(174.441 434.418)"/><path d="m35.637 152.689c.96 11.475 4.572 20.162 15.178 24.871a183.562 183.562 0 0 0 45.718 14.767c1.829.274 3.657.5 5.44.594l3.612 20.665 17.327 98.934 14.813-.686-9.509-123.438a22.859 22.859 0 0 0 -6.675-12.161 7.909 7.909 0 0 0 -.777-.96 98.386 98.386 0 0 0 -28.3-23.133c-2.149-1.234-4.572-2.423-6.721-3.612-3.749-1.92-7.589-3.749-11.567-5.486-2.743-1.189-5.532-2.332-8.458-3.429a260.666 260.666 0 0 0 -27.431-9.144c-.32 1.006-.549 2.012-.823 2.926s0 .457 0 .686a43.614 43.614 0 0 0 -1.829 18.607z" fill="#ea4d29" transform="translate(82.827 306.869)"/><path d="m92.869 188.932-38.083-5.258a15.316 15.316 0 0 1 1.966-14.264 16.778 16.778 0 0 0 14.63.32 53.992 53.992 0 0 0 22.447 12.207c3.657 2.514 2.423 6.08-.96 6.995z" fill="#ffc507" transform="translate(148.943 445.954)"/><path d="m48.72 108.63.823 14.173.457 6.949v2.057a15.864 15.864 0 0 0 .5 3.475 18.287 18.287 0 0 0 2.743 6.355 20.71 20.71 0 0 0 2.057 2.606l1.234 1.28 2.606 2.515 4.983 5.075 9.921 10.058 36.574 35.2 1.783 1.692 8.599-3.291-4.572-6.08-30.585-38.083-8.824-11.018-4.572-5.578-2.147-2.743-1.144-1.372-2.1-9.144-1.1-3.155-4.256-12.571-5.9.64z" fill="#ccc" transform="translate(130.64 223.146)"/><path d="m62.17 132.688a16.321 16.321 0 0 0 19.293 8.824c5.669-1.509 6.126-7.909 1.692-8-2.972 0-9.921-3.566-6.446-4.846s-4.892-4.3-7.863-3.2-6.676 7.222-6.676 7.222z" fill="#ccc" transform="translate(178.681 288.147)"/><path d="m45.74 95.46 5.26 3.612a33.141 33.141 0 0 0 -5.26-3.612z" fill="url(#c)" transform="translate(119.996 181.82)"/><path d="m35.4 234.507a81.57 81.57 0 0 0 11.2 5.349c24 9.6 49.421 6.172 60.119-4.8a9.376 9.376 0 0 0 1.463-1.554 7.452 7.452 0 0 0 -.366-1.006 145.426 145.426 0 0 1 -8.184-27.842 60.3 60.3 0 0 1 -.686-6.812c-.823-11.567 17.419-60.988 9.784-73.423-9.144-15.133-23.682-29.077-38.769-19.43a47.822 47.822 0 0 0 -19.339 22.859v.5l-.914 2.606a98.338 98.338 0 0 0 -4.3 24.688c-1.1 16-.5 34.151-3.657 53.947a152.793 152.793 0 0 1 -6.351 24.918z" fill="#e2d750" transform="translate(83.064 204.478)"/><path d="m35.714 154.046c.96 11.475 4.572 20.162 15.178 24.871a183.562 183.562 0 0 0 45.718 14.767c1.829.274 3.657.5 5.44.594l3.612 20.665c.457-6.218-.229-25.556-.229-25.556s-22.033-17.374-20.618-18.517-1.006-4.572-2.88-7.5c-.823-1.189 7.5-2.1 6.995-2.332-1.6-.64 2.24-7.361 3.612-7.635 7.452-1.372 12.3-10.744 15.59-12.435a47.548 47.548 0 0 0 7.543-6.721c-2.652-1.463-5.349-2.835-8.092-4.16l.549 1.28-1.1 2.56c-6.583 6.766-18.79 10.652-32.78 10.332a59 59 0 0 1 -7.909-.549 79.184 79.184 0 0 1 -19.43-4.892 73.141 73.141 0 0 1 -9.372-4.572l-.777-.411.594 1.1a43.615 43.615 0 0 0 -1.644 19.111z" fill="#ea4d29" opacity=".04" transform="translate(82.75 305.511)"/><path d="m47.09 99.67-2.88 11.612s9.738 11.475 16.321 11.8c2.835 0 5.12-2.972 5.76-8l-5.44-2.56z" fill="#ccc" transform="translate(114.532 196.858)"/><path d="m52.355 179.509 63.457-11.8a1.646 1.646 0 0 0 1.234-.96l20.207-42.289a1.692 1.692 0 0 0 -1.874-2.423l-63.457 11.892a1.92 1.92 0 0 0 -1.234.914l-20.207 42.015a1.737 1.737 0 0 0 1.874 2.652z" fill="url(#d)" transform="translate(135.874 276.619)"/><path d="m46.5 124.383c1.554 2.972 2.56 2.652 2.56 2.652a30.86 30.86 0 0 0 6.721 12.435c.411.457.823.823 1.189 1.189l.777.777a1.782 1.782 0 0 0 .457.366h.229a7.5 7.5 0 0 0 1.143.96 11.154 11.154 0 0 0 4.206 2.149 7.681 7.681 0 0 0 4.3 0 9.144 9.144 0 0 0 3.977-2.652l.274-.274a38.5 38.5 0 0 0 5.029-8 69.4 69.4 0 0 0 5.663-18.285 18.973 18.973 0 0 0 -5.715-16.276c-4.8-4.252-16.6-9.418-22.265-3.749a37.077 37.077 0 0 0 -9.875 17.053 13.258 13.258 0 0 0 1.33 11.655z" fill="#e6e6e6" transform="translate(115.171 173.653)"/><path d="m67.159 112.791a13.35 13.35 0 0 0 -8.184 5.76l-.32.5a31.271 31.271 0 0 0 -1.234 7.863l-2.286 2.012a35.43 35.43 0 0 1 1.326-9.509c-1.1-1.143-2.286-3.84-4.572-3.7-3.795 0-.731 11.429-2.332 14.95a2.149 2.149 0 0 1 -3.886.64s-3.063-17.83-.32-27.156a15.041 15.041 0 0 1 18.288-11.567c2.012.5 4.252 0 6.4.5.823 0 0 2.057.869 1.6 13.715-8.595 22.859 8.321 14.767 18.653-4.48 5.763-9.509 3.888-18.516-.546z" fill="#2b1f1a" transform="translate(114.533 170.021)"/><path d="m58.765 135.007c-.594 3.109 1.646 4.572 4.983 3.7a11.109 11.109 0 0 0 7.086-7.543c.549-3.109-1.692-4.572-4.983-3.7a11.11 11.11 0 0 0 -7.086 7.543z" fill="#f8f8ff" transform="translate(166.176 295.246)"/><path d="m50.855 135.4a33.512 33.512 0 0 0 12.847-11.2l-6.767-17.15-5.9.64c-.957 11.338-1.415 28.071-.18 27.71z" fill="#e2d750" transform="translate(135.592 223.217)"/><path d="m35.4 194.3a5.8 5.8 0 0 0 1.051.549 76.629 76.629 0 0 0 10.149 4.572c24 9.6 49.421 6.172 60.119-4.8l1.1-2.56a159.468 159.468 0 0 1 -6.538-19.842c-.64-2.606-1.234-5.3-1.646-7.955a28.894 28.894 0 0 1 -8.458-3.52c0-1.143-5.9-18.882-5.9-18.882s-8.641-5.12-8.778-11.429a53.033 53.033 0 0 0 -6.355-17.373s-21.167 1.829-24.779 2.286c-1.1 16-.5 34.151-3.657 53.947-.457 2.743-.96 5.486-1.554 8.275a134.781 134.781 0 0 1 -4.252 15.91z" opacity=".06" transform="translate(83.064 244.684)"/><path d="m49 135.671a16.367 16.367 0 0 0 17.967 11.292c5.806-.732 7.132-6.995 2.743-7.681-2.926-.457-9.144-4.846-5.76-5.669s-4.252-4.937-7.361-4.206-7.589 6.264-7.589 6.264z" fill="#e6e6e6" transform="translate(131.64 302.765)"/><path d="m97.958 190.668-7.589 6.263-16.824-16-29.445-28.072-2.1-2.835-1.052-1.417a19.019 19.019 0 0 1 -1.646-2.88 19.75 19.75 0 0 1 -1.783-6.721 15.316 15.316 0 0 1 0-3.52v-2.057l.686-7.086 1.326-14.173a35.386 35.386 0 0 0 22.859 4.069l-3.52 13.715-1.783 6.812v1.28.229l.913 1.554 1.737 3.017z" fill="#e6e6e6" transform="translate(90.271 241.505)"/><ellipse cx="6.126" cy="6.629" fill="#f8f8ff" rx="6.126" ry="6.629" transform="matrix(.82164694 -.56999676 .56999676 .82164694 158.499 287.116)"/><path d="m51.781 100.811a2.972 2.972 0 0 1 -3.2 3.063 3.52 3.52 0 0 1 -3.2-3.52 2.972 2.972 0 0 1 3.2-3.017 3.52 3.52 0 0 1 3.2 3.475z" fill="#ea4d29" transform="translate(118.71 188.493)"/><path d="m47.614 121.633a1.874 1.874 0 0 1 -1.874-1.692c-.686-9.144 2.332-26.471 18.927-27.979a1.92 1.92 0 0 1 2.012 1.692 1.829 1.829 0 0 1 -1.646 2.012c-17.19 1.554-15.681 22.859-15.59 23.956a1.874 1.874 0 0 1 -1.692 2.012z" fill="#ea4d29" transform="translate(119.677 169.317)"/><g fill="none" stroke-width="10"><path d="m525.308 383.254 73.012 10.789" stroke="#f2f2f2" stroke-linecap="round" stroke-linejoin="round"/><path d="m127.12 123.45s.274 50.29 57.7 68.028" stroke="#aeb9ff" stroke-linecap="round" stroke-miterlimit="10" transform="translate(410.669 281.794)"/><path d="m173.18 125.08a85.95 85.95 0 0 1 -49.01 50.975" stroke="#aeb9ff" stroke-linecap="round" stroke-miterlimit="10" transform="translate(400.132 287.616)"/><path d="m131.54 115.52a17.693 17.693 0 0 1 7.635 15.27" stroke="#f2f2f2" stroke-miterlimit="10" transform="translate(421.017 255.545)"/></g></svg>