<svg xmlns="http://www.w3.org/2000/svg" width="125.572" height="773" viewBox="0 0 125.572 773"><defs><style>.a{fill:#ed877b;opacity:0.29;}.b{fill:#d3e6e7;font-size:90px;font-family:UniSansHeavy;letter-spacing:0.3em;opacity:0.49;}</style></defs><g transform="translate(-114 -1282)"><ellipse class="a" cx="10.5" cy="11" rx="10.5" ry="11" transform="translate(114 1923)"/><ellipse class="a" cx="10.5" cy="11" rx="10.5" ry="11" transform="translate(148 1923)"/><ellipse class="a" cx="10.5" cy="11" rx="10.5" ry="11" transform="translate(182 1923)"/><ellipse class="a" cx="10.754" cy="10.754" rx="10.754" ry="10.754" transform="matrix(0.998, -0.07, 0.07, 0.998, 216.615, 1922.928)"/><ellipse class="a" cx="10.5" cy="11" rx="10.5" ry="11" transform="translate(114 1960)"/><ellipse class="a" cx="10.5" cy="11" rx="10.5" ry="11" transform="translate(148 1960)"/><ellipse class="a" cx="10.5" cy="11" rx="10.5" ry="11" transform="translate(182 1960)"/><ellipse class="a" cx="10.754" cy="10.754" rx="10.754" ry="10.754" transform="matrix(0.998, -0.07, 0.07, 0.998, 216.615, 1959.619)"/><circle class="a" cx="10.5" cy="10.5" r="10.5" transform="translate(114 1997)"/><circle class="a" cx="10.5" cy="10.5" r="10.5" transform="translate(148 1997)"/><circle class="a" cx="10.5" cy="10.5" r="10.5" transform="translate(182 1997)"/><ellipse class="a" cx="10.754" cy="10.754" rx="10.754" ry="10.754" transform="matrix(0.998, -0.07, 0.07, 0.998, 216.615, 1996.311)"/><ellipse class="a" cx="10.5" cy="11" rx="10.5" ry="11" transform="translate(114 2033)"/><ellipse class="a" cx="10.5" cy="11" rx="10.5" ry="11" transform="translate(148 2033)"/><ellipse class="a" cx="10.5" cy="11" rx="10.5" ry="11" transform="translate(182 2033)"/><ellipse class="a" cx="10.754" cy="10.754" rx="10.754" ry="10.754" transform="matrix(0.998, -0.07, 0.07, 0.998, 216.615, 2033.002)"/><text class="b" transform="translate(147 1833) rotate(-90)"><tspan x="0" y="69">TRAD&apos;OC</tspan></text></g></svg>