<svg xmlns="http://www.w3.org/2000/svg" width="125.572" height="765.573" viewBox="0 0 125.572 765.573"><defs><style>.a{fill:#d5e7e9;opacity:0.53;}.b{fill:#fadcd9;font-size:90px;font-family:UniSansHeavy;letter-spacing:0.3em;opacity:0.45;}</style></defs><g transform="translate(-1680 -1192.427)"><ellipse class="a" cx="10.5" cy="11" rx="10.5" ry="11" transform="translate(1680 1194)"/><ellipse class="a" cx="10.5" cy="11" rx="10.5" ry="11" transform="translate(1714 1194)"/><ellipse class="a" cx="10.5" cy="11" rx="10.5" ry="11" transform="translate(1748 1194)"/><ellipse class="a" cx="10.754" cy="10.754" rx="10.754" ry="10.754" transform="matrix(0.998, -0.07, 0.07, 0.998, 1782.615, 1193.928)"/><ellipse class="a" cx="10.5" cy="11" rx="10.5" ry="11" transform="translate(1680 1231)"/><ellipse class="a" cx="10.5" cy="11" rx="10.5" ry="11" transform="translate(1714 1231)"/><ellipse class="a" cx="10.5" cy="11" rx="10.5" ry="11" transform="translate(1748 1231)"/><ellipse class="a" cx="10.754" cy="10.754" rx="10.754" ry="10.754" transform="matrix(0.998, -0.07, 0.07, 0.998, 1782.615, 1230.619)"/><circle class="a" cx="10.5" cy="10.5" r="10.5" transform="translate(1680 1268)"/><circle class="a" cx="10.5" cy="10.5" r="10.5" transform="translate(1714 1268)"/><circle class="a" cx="10.5" cy="10.5" r="10.5" transform="translate(1748 1268)"/><ellipse class="a" cx="10.754" cy="10.754" rx="10.754" ry="10.754" transform="matrix(0.998, -0.07, 0.07, 0.998, 1782.615, 1267.311)"/><ellipse class="a" cx="10.5" cy="11" rx="10.5" ry="11" transform="translate(1680 1304)"/><ellipse class="a" cx="10.5" cy="11" rx="10.5" ry="11" transform="translate(1714 1304)"/><ellipse class="a" cx="10.5" cy="11" rx="10.5" ry="11" transform="translate(1748 1304)"/><ellipse class="a" cx="10.754" cy="10.754" rx="10.754" ry="10.754" transform="matrix(0.998, -0.07, 0.07, 0.998, 1782.615, 1304.002)"/><text class="b" transform="translate(1713 1958) rotate(-90)"><tspan x="0" y="69">TRAD&apos;OC</tspan></text></g></svg>