<svg xmlns="http://www.w3.org/2000/svg" width="365.656" height="519.337" viewBox="0 0 365.656 519.337"><defs><style>.a{fill:#ccc;}.b{fill:#636362;}.c{fill:#2f2e41;}.d{fill:#828282;}.e{fill:#0f0f21;}.f{fill:#b27a45;}.g{fill:#ffb8b8;}.h{fill:#8e8e8e;}.i{fill:#87461c;}.j{fill:#f59965;}.k{fill:#acb538;}.l{fill:#8d4b1f;}.m{fill:#b78888;}.n{fill:#50506d;}.o{fill:#fad2a3;}.p{fill:#965424;}.q{fill:#aa6428;}.r{fill:#fefefd;}.s{fill:none;stroke:#ccc;stroke-miterlimit:10;stroke-width:2px;opacity:0.56;}.t{fill:#9e7777;}</style></defs><g transform="matrix(0.998, 0.07, -0.07, 0.998, -466.874, -302.195)"><g transform="translate(505.35 264.126)"><path class="a" d="M1026.555,719.314c9.764-7.981,11.736-19.338,13.653-30.848,1.485-8.918.139-17.489-1.792-26.124-1.57-7.023-5.659-11.1-12.7-12.705a240.628,240.628,0,0,1-37.963-12.105c-8.251-3.4-15.969-8.082-24.21-11.508-10.459-4.348-21.059-8.742-32.886-6.6q1.418,2.1,2.836,4.2.272.528.547,1.056c2.842,3.422,4.432,7.591,6.749,11.326,3.544.079,2.1,2.7,2.281,4.485l-.037.06c4.174.957,4.734,4.884,6.085,7.9a23.383,23.383,0,0,0,7.453,9.522c4.165,3.175,8.9,5.051,13.506,7.028,7.752,3.331,15.788,4.918,23.171-1.555a78.483,78.483,0,0,1,7.948-5.6c5.728-3.877,14.171-5.629,19.043-4-7.916.594-13.231,3.053-15.865,7.54,6.828-.393,13.325-3.022,20.107-1.679a84.375,84.375,0,0,0-16.774,4.119c-7.825,2.818-12.843,6.514-12.227,12.6,2.022,1.487,4,3.194,6.717,1.448,1.523-1.3,2.824-.44,4.2.362a27.614,27.614,0,0,1,12.337,14.383c3.047,6.845,6.652,13.456,8.564,20.776.354,1.353,1.461,2.717-.814,3.363Q1026.518,718.038,1026.555,719.314Z" transform="translate(-783.745 -496.327)"/><path class="a" d="M1293.25,1447.521c-6.667-9.958-10.9-21.081-15.225-32.142a15.863,15.863,0,0,0-5.349-7.416c-.227,1.134-.433,2.559-1.873,2.452-4.522-.337-2.04,2.277-1.259,3.38a17.852,17.852,0,0,1,3.11,11.549c-.114,3.1-1.091,4.346-4.269,4.278-6.986-.151-13.977-.055-20.965-.04a7.257,7.257,0,0,1-3.723-.733c-2.465-1.385-3.913-2.843-1.361-5.6a9.649,9.649,0,0,0,2.792-6.537c.007-1.176.058-2.288,1.609-2.564,2.772-.492,1.438-2.124.912-3.513-2.067.626-3.08,2.328-4.1,4.02a274.061,274.061,0,0,0-16.123,31.926c-2.609,5.953-2.428,11.5-.319,17.3,1.307.9.763,2.245.834,3.442l-.008.022c1.764-.192,3.08.568,2.542,2.355-1.642,5.451,2.545,10.059,1.978,15.372-.173,1.617.581,2.409,3.214,2.277,4.37-.22,8.979-.443,13.328.409,4.559.893,8.988.732,12.491-1.987,3.986-3.094,8.358-5.9,11.308-10.239,2.426-3.564,5.491-5.47,10.231-4.937a36.873,36.873,0,0,0,12.722-.627c5.03-1.2,6.665-4.2,3.754-8.547-2.46-3.671-2.981-8.442-6.7-11.393C1291.954,1449.368,1292.17,1448.2,1293.25,1447.521Z" transform="translate(-976.736 -1012.849)"/><path class="b" d="M1161.45,1016.12v.01l.014-.01Zm-.86.87.007-.014s0,0-.007,0Z" transform="translate(-934.251 -756.36)"/><path class="c" d="M1119.679,1000.748l-3.553,3.192c.057,1.217-.2,2.176-1.72,2.084l.014-.012c.022.6-.273.89-.872.87l.008-.012c.393,3.21-3.756,3.887-3.816,6.844a150.367,150.367,0,0,1-15.815,24.771c-1.78,2.268-4.567,3.858-5.2,6.988a189.184,189.184,0,0,0,26.686-9.814c2.286-1,4.6-1.875,7.5-.926-5.378,6.187-7.28,13.505-8.427,21.113a3.368,3.368,0,0,0-.008.7q.418.037.834.09l2.612,1.634,1.75.823c5.018,1.458,9.994,3.152,15.347,2.7,3.385.4,6.439-.943,9.582-1.817,2.961-9.981,7.967-19.3,9.725-29.66.921-5.424,1.877-10.88-1.094-16.172a16.758,16.758,0,0,0-7.729-6.957,47.775,47.775,0,0,0-19.51-4.6C1123.764,1002.536,1122.109,1000.263,1119.679,1000.748Z" transform="translate(-887.208 -746.253)"/><path class="a" d="M709.919,624.437c-1.181-2.977-2.6-3.169-4.789-.731a16.144,16.144,0,0,1-6.466,4.255c4.492,12.613,11.214,23.181,25.006,27.263l1.622.2,2.651.7c1.836.17,3.9-.1,4.557,2.354l-.115.074c2.858,3.844,3.449,8.44,4.293,12.951,2.22-.221,4.046.92,5.947,1.758,2.712,1.2,5.7,4.16,7.61,4.062,4.519-.234,8.041,1.994,12.063,2.728,1.6-1.061,3.821-.787,5.181-2.378q-.006-.5-.01-1.006c-.359-1.641-.688-3.289-1.082-4.922-1.313-5.442-3.423-10.722-3.312-16.451a5.407,5.407,0,0,1,2.174-6.108,19.9,19.9,0,0,1,2.913-5.548l-.031-.3a28.383,28.383,0,0,0-.249-16.075c-2.876-4.512,2.014-2.952,3.294-4.214-3.589.155-7.257-.675-10.736.855a7.087,7.087,0,0,1-3.413,6.45c-2.963,1.844-3.825,4.349-3.29,7.584,1.422-.281,1.96-2.322,4.175-2.122-.7,1.033-1.091,1.751-1.61,2.364-1.99,2.348-3.821,4.6,1.211,5.368,1.453.22,1.47,1.152.825,2.159-.753,1.176-1.62,2.278-2.438,3.412q.278,2.134.557,4.268c.99.36,2.509-.437,2.951.99.344,1.11-.9,1.663-1.552,2.347-1.169,1.225-2.374,2.4-2.649,3.944.783,1.143,2.621-.03,3.179,1.929-2.162.509-4.867-.161-5.47,2.929a1.027,1.027,0,0,1-1.734.451c-1.93-2.042-3.777-.367-6.736.7,3.671-4.216,1.643-5.566-1.5-6.595-1.152-.377-3.956-.644-.887-2.63q.277-.653.552-1.312a3.66,3.66,0,0,1-1.552-3.6c-1.224-1.035-4.807-1.149-1.539-3.938l-.611-6.13c-1.8-.875-.793-2.151-.474-3.328.067-3.4-.757-5.56-5-5.54a55.678,55.678,0,0,1-7.583-.62C719.518,632.134,713.14,631.176,709.919,624.437Z" transform="translate(-631.887 -498.397)"/><path class="d" d="M1297.866,1522.481c-1.079.679-1.3,1.848-.454,2.515,3.722,2.952,4.243,7.722,6.7,11.393,2.911,4.343,1.276,7.347-3.754,8.547a36.875,36.875,0,0,1-12.722.627c-4.74-.533-7.8,1.373-10.231,4.937-2.949,4.334-7.321,7.145-11.307,10.239-3.5,2.718-7.932,2.88-12.492,1.987-4.349-.852-8.957-.629-13.328-.409-2.633.132-3.386-.66-3.214-2.277.568-5.314-3.619-9.921-1.978-15.372.538-1.786-.778-2.547-2.542-2.355q1.843,12.86,3.685,25.721c2.853,3.838,1.689,7.895.652,11.945l-.171-.131.288,1.036c3.819.512,7.247-1.249,10.375-2.751,1.673-.8,2.758-2.448,4.919-1.544l.04-.04a7.521,7.521,0,0,0-.114-6.078c-.308-.7-.978-1.6.073-2.2.7-.4,1.321.074,1.787.67.587.75,1.474.719,2.295.854l.134-1.029c1.5-1.309,2.33-.864,2.633.992l-.012-.017a3.843,3.843,0,0,0,3.7-3.321c.513-2.192,2.234-2.519,3.672-.594,2.474,3.314,6.509,3.707,9.327.723.632-.67,1.237-1.223,2.134-.565.839.615.965,1.33.043,2.025.249,2.575.941,4.711,4.228,4.294.281-1.043-.021-2.464,1.677-2.589,5.454,2.93,8.784,2.051,11.356-2.962,1.617.4,1.063,2.995,3.065,3.069.907-3.07-.29-6.092-.234-9.046,2.933-.568,2.769,3.834,5.606,2.953,0-1.433.786-1.4,1.789-.948,1.074-.48,2.675.057,2.666-2.2s.769-4.493,1.277-7.129c2.551,2.35,1.351,5.893,3.754,7.7a5.387,5.387,0,0,1,.845-.03c.421-3.628-1.391-7.092-.79-10.734l.124-.2-.16-.171c-2.308-.216-1.277-1.532-.871-2.642-1.678-6.811-3.7-13.381-9.264-18.307C1301.014,1527.24,1299.584,1524.7,1297.866,1522.481Z" transform="translate(-981.353 -1087.809)"/><path class="d" d="M1277.022,1391.154c.525,1.389,1.86,3.021-.912,3.513-1.551.276-1.6,1.388-1.609,2.564a9.648,9.648,0,0,1-2.792,6.537c-2.552,2.756-1.1,4.214,1.361,5.6a7.258,7.258,0,0,0,3.723.733c6.989-.016,13.98-.112,20.965.04,3.178.069,4.155-1.176,4.269-4.278a17.852,17.852,0,0,0-3.11-11.549c-.781-1.1-3.263-3.717,1.259-3.38,1.439.107,1.646-1.318,1.873-2.452l-.016.141-.923-.934.049.085-.918-.932.07.08-.92-1a31.352,31.352,0,0,0-10.792-7.721l-4.8,2.579c1.4,1.429.6,2.281-.883,2.445-.923.1-1.583-.009-1.56,1.146l1.089.459-1.143.376.037-.033c-.336,2.8-1.214,5.217-4.325,6.029Z" transform="translate(-1006.108 -993.367)"/><path class="e" d="M1122.97,1350.992c.017-.008.026-.008.043-.017a.108.108,0,0,0,.009-.051Z" transform="translate(-909.626 -975.513)"/><path class="e" d="M1187.609,1235.624c-1.6.858-3.2,1.716-4.8,2.582q-5.032,1.055-10.056,2.119c-9.756.42-19.425,1.27-28.88,4-7.988,2.308-15.985,4.7-24.393,5.08,0-.223-.009-.446-.026-.661l-1.373-.154a33.372,33.372,0,0,1-.858-3.234c-1.073-6.461-2.394-12.947,1.253-19.09-.009.008-.009.008-.017.008.2-.377.4-.755.6-1.132l-.035-.017c.317-.541.627-1.073.944-1.613l-.009-.008.746-1.7-.035-.137c3.458-7.344,4.016-15.453,5.912-23.226-11.223-3.93-11.283-3.947-7.919-15.539a88.966,88.966,0,0,1,7.224-17.237,7.939,7.939,0,0,1,3.827-3.792c.884-.489,1.776-.987,2.668-1.484a3.238,3.238,0,0,0-.009.7c.275.026.558.051.833.086.875.549,1.742,1.089,2.617,1.639.575.275,1.159.549,1.742.824,5.019,1.458,10,3.149,15.349,2.7,3.389.4,6.444-.944,9.584-1.819,2.548-.429,3.432.506,3.475,3.218.137,8.631-1.356,17.314.695,25.9a1.659,1.659,0,0,1-.867,1.8c-.807,1.665-2.488,2.068-3.973,2.8-3.337,1.656-7.1,1.33-10.553,2.411-1.012,3.1-2.085,6.169-3,9.292-.807,2.737-1.193,5.5,1.107,7.833.446.746-.558,2.025.892,2.4,2.111-.712,3.758.446,5.568,1.227,9.275,4,18.619,7.3,28.923,3.706,3.749-1.313,4.307,1.862,5.054,4.316C1190.586,1231.96,1188.595,1233.642,1187.609,1235.624Z" transform="translate(-905.118 -850.792)"/><path class="c" d="M911.414,669.168c-2.615,1.067-5.354.366-8.031.539-7.171.463-13.624-2.553-16.4-12.287-.342-1.206-.273-3.036-2.307-3.13a5.41,5.41,0,0,1,2.173-6.111,19.889,19.889,0,0,1,2.912-5.544s-.028-.3-.028-.3a28.387,28.387,0,0,0-.252-16.076c-2.874-4.511,2.014-2.953,3.3-4.214l7.627-1.554q1.42,2.1,2.836,4.2a3.2,3.2,0,0,0-.553.435c.283.29.566.577.85.864-.034.532-.314,1.237-.076,1.568,6.086,8.363,8.743,18.3,12.394,27.717C918.837,662.964,917.072,666.85,911.414,669.168Z" transform="translate(-753.487 -497.392)"/><path class="d" d="M1465.939,1603.261c-.6,3.642,1.212,7.105.79,10.734q.01.856.019,1.712a10.732,10.732,0,0,0,1.081-6.581C1467.419,1607.1,1467.211,1605.011,1465.939,1603.261Z" transform="translate(-1134.043 -1140.686)"/><path class="d" d="M1462.441,1594.541c-.406,1.11-1.438,2.426.87,2.642A2.984,2.984,0,0,0,1462.441,1594.541Z" transform="translate(-1131.452 -1134.978)"/><path class="f" d="M1354.387,1400.552l.92,1Z" transform="translate(-1061.105 -1007.998)"/><path class="f" d="M1359.364,1405.669l.923.934Z" transform="translate(-1064.363 -1011.347)"/><path class="f" d="M1356.848,1403.217l.919.932Z" transform="translate(-1062.716 -1009.742)"/><path class="a" d="M777.564,1047.759c-2.033,4.931-2.236,10.267-2.573,15.4-.983,14.975-2.31,29.947-2,45,.068,3.328.484,5.077,4.237,4.183a10.6,10.6,0,0,1,2.551.011c2.45-1.688,5.314-.441,7.907-1.114.275-.376.567-.4.879-.045l1.632-.03c.9-2.514,3.423-2.552,5.31-2.88a19.873,19.873,0,0,0,6.42-2.092c6.472-3.668,9.954-7,7.087-15.385-1.736-5.074-3.158-10.257-4.648-15.413-1.881-6.511-4.193-12.953-5.379-19.593-1.1-6.184-.965-6.568-7.441-6.944-2.449-.142-5.12,1.021-7.337-.967l-2.51.113c-.293.6-.574.59-.846-.015Z" transform="translate(-680.508 -777.07)"/><path class="c" d="M801.807,1225.187l-1.632.031-.879.045c-2.593.672-5.457-.574-7.907,1.114a141.99,141.99,0,0,0,6.146,23.883c2.906,8.613,1.24,16.807-2.347,24.831a62.319,62.319,0,0,0-4.5,12.815c7.856,4.143,16.367,3.892,24.868,3.7l4.325-1.035.844-.719,1.677.077a1.314,1.314,0,0,0-.021-.651c-.15-2.265-.244-4.536-.459-6.794-1.038-10.878-2.29-21.78-.18-32.641,1.815-9.342,3.964-18.621,6.652-27.762a7.981,7.981,0,0,0-3.772.366A111.894,111.894,0,0,1,801.807,1225.187Z" transform="translate(-692.122 -891.096)"/><path class="a" d="M751.02,905.254l.757.778a4.355,4.355,0,0,1,2.471,2.223c3.628,7.119,10.092,8.764,17.265,8.908a19.652,19.652,0,0,1,6.158,1.317,3.224,3.224,0,0,1,.767.3c5.42,0,10.2-2.809,15.446-3.545.071-.847.036-1.729.9-2.27,3.459-2.169,6.763-4.661,10.419-6.417,2.891-1.389,2.622-2.267,1-4.646-6.548-9.632-13.391-19.126-17.778-30.032-1.236-3.072-4.172-3.163-6.529-4.2-1.244-.547-1.846.637-1.444,1.778,2.641,7.487,2.345,15.757,6.126,22.934.56,1.063.969,2.8.251,3.207-3.11,1.774-5.962,4.634-10.106,3.43C768.283,901.618,759.663,903.484,751.02,905.254Z" transform="translate(-666.159 -659.101)"/><path class="e" d="M808.231,1442.015c.334,5.38-.532,6.486-7.585,9.644l.052-.138c-.017.017-.043.034-.06.052-.326.292-.644.575-.97.858a.847.847,0,0,1-.249.712c-.206.566-.412,1.141-.618,1.707-1.167,4.05-.386,8.64-3.38,12.184a.993.993,0,0,1-.223.7c1.407,5.955,3.93,11.729,2.737,18.095a8.747,8.747,0,0,0,1.056,5.732c.051.523.094,1.047.146,1.57,2.231,2.565,2.72,5.877,3.809,8.932a1.656,1.656,0,0,1-.232.807c1.253,4.977-.566,8.554-4.959,11.008-2.471,1.381-4.865,2.917-7.379,4.2-7.207,3.716-13.376.712-19.4-3.114-3.784-2.4-6.624-5.328-5.869-10.3a13.464,13.464,0,0,1,1.519-5.191c1.664-3.372,3.114-6.847,4.65-10.279q.077-2.6.154-5.182c1.656-6.238,4.016-12.218,2.54-19.073-1.39-6.444-1.15-12.853-9.061-16.036-5.44-2.187-5.954-5.534-4.376-11.806,1.725-6.847,4.11-13.531,5.045-20.583.369-2.746,1.75-4.445,4.856-3.861,7.859,4.144,16.371,3.9,24.874,3.7l4.324-1.03c.283-.24.558-.481.841-.721l1.682.077a1.394,1.394,0,0,0-.026-.652c3.089-.755,3.981,1.279,4.376,3.629A110.922,110.922,0,0,1,808.231,1442.015Z" transform="translate(-671.876 -1015.845)"/><path class="g" d="M654.378,919.48l-.028.017c0-.007,0-.014.007-.017Z" transform="translate(-602.881 -693.102)"/><path class="e" d="M694.125,844.844c-1.591.126-2.613.8-2.5,2.581,3.052,2.893,3.492,7.015,4.652,10.676,3.045,9.61,5.511,19.4,5.533,29.587,0,2.017.6,2.829,2.633,2.747,2.56-.1,5.128-.031,7.692-.035,8.643-1.77,17.263-3.636,25.705-6.233,7.828-3.65,7.89-3.841,5.226-12.009A61.356,61.356,0,0,1,741.446,866c-1.507-7.035-2.951-14.083-4.42-21.126-.935.11-1.675.443-1.576,1.567.231,2.617.486,5.233.731,7.849,1.639,1.155-.346,2.688.643,4.279,3.532,5.681,3.285,12.264,3.652,18.669.108,1.886-.678,3.176-2.442,3.434-6.813,1-12.972,4.392-19.92,5.035-8.726.807-12.694-1.055-14.452-9.423A209.164,209.164,0,0,0,694.125,844.844Z" transform="translate(-627.276 -644.247)"/><path class="d" d="M639.012,906.872l-3.227,4.329-.417.058-.42-.013.029-.017a4.909,4.909,0,0,1-.971,3.12c-3.147,4.591-6.206,9.243-9.3,13.873,1.611,3.388,1.046,7.656,4.212,10.415,6.736-7.339,8.889-16.331,9.411-25.933C638.439,910.754,638.78,908.816,639.012,906.872Z" transform="translate(-583.48 -684.849)"/><path class="d" d="M779.1,991.429a19.659,19.659,0,0,0-6.158-1.317c-7.173-.144-13.636-1.789-17.264-8.908a4.354,4.354,0,0,0-2.471-2.224c1.143,6.476,3.83,11.754,10.7,13.781l3.989.037,1.756-.037,4.969-.491Z" transform="translate(-667.593 -732.05)"/><path class="c" d="M789.758,1028.8l.36-.206.017.017C790.007,1028.677,789.878,1028.737,789.758,1028.8Z" transform="translate(-691.515 -764.523)"/><path class="c" d="M843.8,994.714a11.273,11.273,0,0,1-4.882,1.922c-.009,0-.2-.146-.2-.146-1.459,1.4-3.346,1.862-5.217,2.36q-2.587.862-5.174,1.716-6.847,1.724-13.685,3.432c-.455.051-.918.1-1.373.163h-.009c-.395.214-.789.438-1.184.652l-7.782.875-1.647.077c-.515.112-1.038.223-1.561.326-3.372,1.518-7.147-.24-10.519,1.3-.841.035-1.673.069-2.514.112-.283-.009-.567-.009-.849-.017-1.09-.077-2.188-.155-3.278-.223a14.752,14.752,0,0,1-.738-9.979c1.33.009,2.66.026,3.99.035.583-.009,1.167-.026,1.759-.035l4.968-.489c1.493-.283,2.986-.566,4.47-.841a3,3,0,0,1,.772.3c5.414,0,10.193-2.806,15.444-3.544q4.324-1.12,8.649-2.222c2.214-.292,3.955-2.171,6.341-1.9a19.457,19.457,0,0,1,6.229-2.694C838.8,988.544,842.617,990.432,843.8,994.714Z" transform="translate(-686.871 -736.574)"/><path class="c" d="M747.513,324.695a103.589,103.589,0,0,1-3.178-18.242c-.335-4.5-.477-8.936,1.333-13.32,1.285-3.116.494-5.693-2.819-7.8-9.1-5.782-17.558-12.556-27.044-17.755-1.9-1.043-3.962-1.8-5.948-2.684-3.178-.373-6.339-.974-9.561-.7-12.905,3.568-22.836,12.035-33,20.1-.221.176-.09.8-.124,1.212-2.639,1.931-6.19,2.048-8.65,4.335-.328.252-.656.508-.988.763a1.7,1.7,0,0,0-.722.062c-3.092-.86-4.19.8-5,3.5-4.155,13.914-2.587,27.772.048,41.672a80.74,80.74,0,0,1,1.326,22.885c-.339,3.472-2.207,6.377-4.207,9.651a16.643,16.643,0,0,0,8.459-2.366c.9-.5,1.572-1.965,2.877-1.067,1.116.767.884,2.162.632,3.178-.843,3.423-.1,4.4,3.6,3.444,1.758-.459,5.8-1.91,4.549,3.219-.2.829.473,2.035,2.487,1.326,4.325-1.523,6.546-5.268,9.941-8.346.093,3.42-1.765,5.465-3.51,7.6-.546.663-1.962,1.216-.888,2.4.86.943,1.838.287,2.712-.18,1.748-.926,3.482-1.872,5.223-2.808q.114-3.026.231-6.045c0-.884,0-1.765,0-2.649-2.332-2.718-6.1-4.594-5.365-9.119q.855-5.259,1.713-10.515.114-5.119.225-10.235c-.373-1.427.6-2.618.611-4.079a29.438,29.438,0,0,1,5.351-16.736c4.822-6.995,12.007-10.594,19.582-13.634,2.173,2.169-1.254,3.24-.984,5.036l4.542.3.055.035c-.484-3.917.076-4.249,5.9-3.5,4.2-1.914,7.955-4.971,12.86-5.123l6.252-.756c.249,1.054.494,2.111.739,3.164q.238.912.48,1.82c2.667,12.715,2.01,25.579,1.713,38.429a27.35,27.35,0,0,1-.017,3.838c-.984,7.061.028,14.764-6.314,20.145q-3.549,3.016-7.1,6.038c.411,1.226-1.845,2.266-.428,3.389,1.026.808,2.221-.245,3.154-.712,6.96-3.482,12.771-8.011,14.553-16.221.359-1.662,1.375-3.185,2.3-5.237,1.886,3.347-.311,6.152.038,9.289,3.247-1.865,4.508-4.822,5.161-7.921C752.412,343.811,750.025,334.367,747.513,324.695ZM672.68,345.217a16.52,16.52,0,0,1-11.627-19.1c.694-3.223,2.708-4.287,5.579-3.772,2.7.487,5.8.767,5.675,4.867-.131,4.411-.021,8.829-.014,13.244a3.042,3.042,0,0,1,.031.708A4.892,4.892,0,0,1,672.68,345.217Z" transform="translate(-599.366 -264.126)"/><path class="c" d="M699.36,666.469c-13.792-4.083-20.514-14.65-25.005-27.263l-6.791,4.03c-.486,1.155-1.549.9-2.463,1.007l-.075.027c-.337,2.318-2.148,1.488-3.5,1.639l.039-.027c.353,3.6,2.8,6.68,2.578,10.422-.067,1.653,1.06,2.839,1.651,4.235,3.251.93,6.824,1.613,4.462,6.637,3.4-.583,6.287-1.271,9.206-1.493,1.419-.108,3.444-1.617,4.257.089.976,2.047-1.693,2.479-2.7,3.676-.141.167-.081.5-.169,1.186,3.525,0,6.993-.034,10.46.017,1.375.02,3.7.221,2.461,2.054-1.476,2.188.29,3.323.444,4.926,4.77.049,8.609,3.556,13.379,3.607,1.424-.786,1.218-2.172,1.146-3.416-.156-2.678-.436-5.35-.665-8.024l.112-.071a4.376,4.376,0,0,1-4.554-2.356l-2.651-.7C700.332,667.478,699.8,667.347,699.36,666.469Z" transform="translate(-607.578 -509.643)"/><path class="a" d="M622.09,673.425c-.591-1.4-1.718-2.583-1.651-4.236a35.337,35.337,0,0,1-4.267-10.3c-9.709,1-15.859,7.272-21.413,14.434a1.288,1.288,0,0,0,1.592.8c4.75-2.811,7.306,3.4,11.567,2.9.379-.045.951,1.55,1.434,2.383l-.039-.022c1.673-2.187,2.061-.463,2.586.849l.027.02,2.543-.034,1.429-1.857c.86,1.315,2.333,2.337,2.024,4.216C622.028,680.764,622.275,677.193,622.09,673.425Z" transform="translate(-563.875 -522.527)"/><path class="e" d="M569.4,728.918q.485-2.991.971-5.982-.751-.53-1.5-1.058c-.976.121-2.265.7-2.874.286a24.676,24.676,0,0,0-9.9-3.813c-1.181-.207-2.519-.678-2.706-2.279-2.293.375-4.643-1.155-6.906.21l-.255.655-.474-.682c.768-1.479-1.654-3.312.515-4.635l-1.373-.826c-6.582,4.74-13.175,9.454-18.608,15.583-1.8,2.027-1.809,3.034,1.131,3.42,2.27.3,5.074,3.3,6.131-1.441,3.351,1.6,3.622-3.05,6.186-3.048,2.073.391,3.472.026,2.878-2.57-2.422.011-2.76-3.671-5.587-3.24,3.829.093,7.638-.663,11.255.781C555.345,723.1,562.364,726.031,569.4,728.918Z" transform="translate(-518.245 -556.501)"/><path class="a" d="M552.529,778.668c-2.8,2.6-6.584,4.131-8.456,7.748a1.49,1.49,0,0,0-.052.739q-.057,2.575-.117,5.154c-.428,9.247.117,18.4,2.677,27.351,1.61,3.389,1.047,7.655,4.211,10.415a55.553,55.553,0,0,1-13.427,14.391c-2.791,2.138-4.65,2.187-7.409,0-10.349-8.19-15.154-19.866-20.308-31.361-1.33-2.967-1.157-6.681-4.3-8.757V799.2c.518-.584,1.375-.556,1.772-1.572,1.389-3.523,2.943-6.992,4.656-10.37,2.359-4.663,4.95-9.213,7.389-13.838,3.551-6.726,4.929-14.152,6.8-21.413q.435-3.456.867-6.919c2.073.39,3.472.028,2.877-2.57,1.644-1.914,3.4-1.789,5.617-.794,6.8,3.047,13.707,5.865,20.57,8.77l-.083,5.879c.525,3.036,1.026,6.076,1.575,9.106C558.363,770.841,557.489,775.5,552.529,778.668Z" transform="translate(-505.35 -576.287)"/><path class="h" d="M582.5,707.408l1.373.826c-2.169,1.323.253,3.157-.515,4.638a.524.524,0,0,1,.73.024c2.263-1.364,4.613.166,6.9-.21l18.874.741.032-.263c.308-1.877-1.164-2.9-2.024-4.214l-1.429,1.858c-.832,1.222-1.68,1.238-2.543.034l-.027-.02c-1,.142-2.013.313-2.586-.849l.039.023-2.626-.008c.146.379.51,1.009.4,1.1-1.173,1.022-1.718-.1-2.618-.915l2.251-.154c-3.02-2.51-7.8-.857-10.386-4.4l-3.451.111C584.379,706.694,582.474,705.668,582.5,707.408Zm18.325,4.714c.091-.105.2-.311.268-.3a4.548,4.548,0,0,1,.732.271c-.092.1-.2.307-.272.294A4.321,4.321,0,0,1,600.822,712.122Z" transform="translate(-555.848 -553.117)"/><path class="e" d="M656.748,658.656a35.338,35.338,0,0,0,4.267,10.3c.226-3.742-2.224-6.823-2.578-10.422Z" transform="translate(-604.451 -522.294)"/><path class="c" d="M661.526,655.506c1.352-.151,3.163.679,3.5-1.639A6.812,6.812,0,0,0,661.526,655.506Z" transform="translate(-607.578 -519.239)"/><path class="h" d="M589.453,702.495l3.451-.111q-.012-.452-.027-.905a1.288,1.288,0,0,1-1.592-.8A2.784,2.784,0,0,0,589.453,702.495Z" transform="translate(-560.401 -549.879)"/><path class="c" d="M671.876,651.88c.914-.109,1.977.148,2.463-1.007A3.365,3.365,0,0,0,671.876,651.88Z" transform="translate(-614.353 -517.28)"/><path class="i" d="M673.745,339.351l.987-.764Z" transform="translate(-615.576 -312.866)"/><path class="g" d="M654.378,919.48l-.028.017c0-.007,0-.014.007-.017Z" transform="translate(-602.881 -693.102)"/><path class="a" d="M550.251,879.637c-3.592,2.345-3.453,6.134-3.794,9.738,1.449-3.17,4.046-5.89,3.82-9.713Z" transform="translate(-532.257 -667.022)"/><path class="j" d="M617.254,873.174a4,4,0,0,0,.313-.523c.012-.029-.171-.142-.263-.216A1.5,1.5,0,0,0,617.254,873.174Z" transform="translate(-578.583 -662.308)"/><path class="a" d="M1095.116,1579.314l-.288-1.035c-1.423-.656-1.561-1.94-1.469-3.242.543-7.6-3.569-12.3-9.114-16.906-4.1-3.407-9.32-6.025-11.552-11.438l.011.01a4.884,4.884,0,0,1-3.453-1.514c-6.287-7.035-14.255-12.214-20.8-18.96-2.844-2.932-5.629-5.771-10.4-5.387-3.014.243-6.1-.47-9.16-.754-.582,2.638-2.973,4-4.353,6.1-3.273,4.981-3.866,10.779-5.719,16.192-2.215,6.47-3.79,12.844-2.659,19.683a1.634,1.634,0,0,1,.752,1.64c2.034,1.581,4.079-.255,6.116.02,2.45,1.154,5.561,1.551,5.883,5.141a8.958,8.958,0,0,1,6.754,1.919c.378-1.964-.4-4.33,2.167-5.887a26.261,26.261,0,0,0,4.731,8.376c.3-1.55-.443-3.276.838-4.9,1.744,1.33,1.47,3.957,3.427,4.936,1.8-1.245,3.546-2.691,3.99,1.186.095.829,1.468,1.512,2.253,2.262,2.406-3.738,3.432.119,5.015.911-.134-1.767.571-3.1,2.4-3.156,1.429-.045.923,1.369,1.059,2.236l-.015-.008c.976-.66,1.486-1.822,3.187-1.5,6.6,1.245,13.2,2.385,19.137,5.778l-.016-.005c1.678-2.1,3.212-4.788,5.769-.712.367.584,1.789.507,2.722.735.868-1.117,1.622.174,2.441.113Q1094.943,1580.227,1095.116,1579.314Z" transform="translate(-839.466 -1086.242)"/><path class="d" d="M1003.953,1560.8c-1.131-6.839.444-13.214,2.659-19.683,1.853-5.413,2.446-11.211,5.719-16.192,1.38-2.1,3.771-3.464,4.353-6.1a3.924,3.924,0,0,1,.1-.667c-3.98.048-6.619,2.1-8.4,5.526a106.772,106.772,0,0,0-7.732,18.406,2.618,2.618,0,0,1,.518,3.126c-2.063,3.806-2.25,8.206-4.038,12.078q.032.567.062,1.133C998.742,1561.224,1001.835,1559.626,1003.953,1560.8Z" transform="translate(-827.258 -1084.979)"/><path class="d" d="M1244.784,1667.364q-.174.914-.349,1.829c.437,3.065,2.535,2.523,4.574,2.111a1.817,1.817,0,0,1,.464-.54,1.517,1.517,0,0,0,.844-1.815c-.049-.1-.167-.251-.135-.3a3.772,3.772,0,0,1,.443-.458c2.572.564,5.354,3.485,7.527-.667.048-.091.6-.065.77.078,3.522,2.9,3.468-.275,4-2.4,1.793.3,2.516,2.459,4.714,2.389.6-4.317-1.258-7.868-3.48-11.315-.822-.135-1.708-.1-2.3-.854-.467-.6-1.086-1.073-1.787-.671-1.05.6-.38,1.5-.073,2.2a7.522,7.522,0,0,1,.114,6.079l.341.375-.381-.336c-2.162-.9-3.247.742-4.919,1.544C1252.031,1666.115,1248.6,1667.876,1244.784,1667.364Z" transform="translate(-989.134 -1174.292)"/><path class="d" d="M1401.044,1636.188c-2.837.881-2.672-3.521-5.606-2.953-.056,2.954,1.14,5.976.234,9.046-2-.075-1.449-2.671-3.065-3.069-2.573,5.013-5.9,5.892-11.356,2.962,1.45,5.6,4.876,8.792,7.687,6.46,3.032-2.515,8.24.655,9.86-4.728.454-1.505,1.062,1.845,2.817,1.411C1402.064,1642.316,1402.591,1639.228,1401.044,1636.188Z" transform="translate(-1078.689 -1160.272)"/><path class="d" d="M1328.385,1647.74c.922-.7.8-1.411-.044-2.025-.9-.658-1.5-.1-2.134.565-2.818,2.984-6.853,2.591-9.327-.723-1.437-1.925-3.159-1.6-3.672.594a3.843,3.843,0,0,1-3.7,3.321l7.9,5.988c.957.364,2.049-1.572,2.808-.042,1.223,2.463,2.991,1.108,4.62.919l.2-.866a6.127,6.127,0,0,1-.8-.229c-.083-.035-.148-.321-.143-.323,2.255-1.041,2.37-3.183,2.6-5.2C1326.815,1648.584,1327.16,1647.836,1328.385,1647.74Z" transform="translate(-1031.729 -1167.543)"/><path class="a" d="M1170.528,1685.408c-5.939-3.393-12.54-4.533-19.137-5.778-1.7-.321-2.211.841-3.187,1.5a2.907,2.907,0,0,0,2,2.99C1156.875,1685.889,1163.485,1689.342,1170.528,1685.408Z" transform="translate(-926.143 -1190.638)"/><path class="d" d="M1451.429,1619.827c-2.4-1.809-1.2-5.353-3.754-7.7-.508,2.636-1.285,4.884-1.277,7.129s-1.592,1.722-2.666,2.2l4.832,5.312,1.1.823-.062.151C1451.21,1625.332,1451.46,1622.612,1451.429,1619.827Z" transform="translate(-1119.588 -1146.488)"/><path class="d" d="M1356.022,1654.274c-1.225.1-1.57.845-1.7,1.976-.226,2.021-.341,4.163-2.6,5.2,0,0,.061.288.143.323a6.134,6.134,0,0,0,.8.229c2,.825,2.154,4.83,4.9,3.672,2.516-1.062,2.312-4.218,2.685-6.689a2.32,2.32,0,0,0-.01-.421C1356.963,1658.985,1356.271,1656.848,1356.022,1654.274Z" transform="translate(-1059.365 -1174.077)"/><path class="a" d="M1080.239,1658.187a26.269,26.269,0,0,1-4.731-8.376c-2.563,1.557-1.789,3.923-2.167,5.887C1075.125,1657.955,1076.833,1660.425,1080.239,1658.187Z" transform="translate(-877.141 -1171.156)"/><path class="d" d="M1003.777,1637.107c-2.118-1.175-5.211.424-6.757-2.375-.3,2.324-.349,5.111,1.549,6.284,2.193,1.355,4.089-1.086,5.959-2.267A1.635,1.635,0,0,0,1003.777,1637.107Z" transform="translate(-827.082 -1161.285)"/><path class="a" d="M1221.277,1691.1c-.933-.229-2.355-.151-2.722-.735-2.557-4.076-4.091-1.385-5.769.712,1.641,1.439,3.812,1.6,5.745,2.305C1220.493,1694.1,1221.461,1693.192,1221.277,1691.1Z" transform="translate(-968.417 -1196.316)"/><path class="d" d="M996.686,1602.643c1.788-3.872,1.975-8.272,4.038-12.078a2.617,2.617,0,0,0-.518-3.125c-1.664,4.658-4.041,9.131-3.728,14.3Q996.581,1602.193,996.686,1602.643Z" transform="translate(-826.809 -1130.329)"/><path class="a" d="M1111.9,1675.078c-.785-.75-2.158-1.433-2.253-2.262-.444-3.877-2.186-2.431-3.99-1.186C1107.122,1675.747,1109.339,1676.971,1111.9,1675.078Z" transform="translate(-898.294 -1184.568)"/><path class="a" d="M1042.641,1651.556c-.321-3.591-3.433-3.988-5.883-5.141C1036.75,1650.381,1038.8,1651.994,1042.641,1651.556Z" transform="translate(-853.194 -1168.933)"/><path class="d" d="M1339.8,1676.292c-1.629.189-3.4,1.544-4.62-.919-.76-1.53-1.851.406-2.808.042,2.127,1.95,4.24,3.921,7.428,4.708Z" transform="translate(-1046.697 -1187.497)"/><path class="d" d="M1462.56,1634.356c.031,2.785-.219,5.5-1.822,7.914.4.833.8,1.664,1.413,2.941a30.955,30.955,0,0,0,1.274-9.174q-.009-.856-.019-1.712A5.341,5.341,0,0,0,1462.56,1634.356Z" transform="translate(-1130.72 -1161.016)"/><path class="a" d="M1141.672,1679.864c-.135-.867.37-2.281-1.059-2.236-1.826.057-2.53,1.389-2.4,3.156.1.533.019,1.341.33,1.541.716.459.722-.5.95-.833C1140.05,1680.677,1140.5,1679.816,1141.672,1679.864Z" transform="translate(-919.596 -1189.363)"/><path class="d" d="M1304.554,1656.035c-.3-1.856-1.137-2.3-2.633-.992Z" transform="translate(-1026.763 -1174.088)"/><path class="i" d="M1458.825,1655.338l-1.1-.823Z" transform="translate(-1128.745 -1174.234)"/><path class="k" d="M1612.1,1703.208l-.2-.354.2.354Z" transform="translate(-1229.672 -1205.876)"/><path class="l" d="M1258.142,1701.388a1.815,1.815,0,0,0-.464.54Z" transform="translate(-997.802 -1204.917)"/><path class="l" d="M1261.507,1693.954a3.766,3.766,0,0,0-.443.458c-.031.044.087.194.135.3A1.585,1.585,0,0,0,1261.507,1693.954Z" transform="translate(-1000.015 -1200.05)"/><path class="b" d="M1013.151,892.021c0,.007.007.01.01.017h.017ZM972.007,869.73h-.017s.007,0,.01.007a.021.021,0,0,1,.014,0S972.011,869.733,972.007,869.73Z" transform="translate(-810.799 -660.537)"/><path class="b" d="M983.7,814.711q-4.959-7.321-9.91-14.639c-2.01-2.974-4.069-5.934,1.358-7.658.418-.135.542-1.206.8-1.841a27.62,27.62,0,0,0-12.335-14.384c-1.371-.8-2.674-1.658-4.193-.363-2.722,1.744-4.7.038-6.719-1.451-8.4-.5-16.515-3.71-25.089-2.732-1.071.124-1.8-.7-2.3-1.613-3.8,0-7.606,0-11.41-.017-1.378-.007-2.895.252-3.527-1.513-.162.525-.325,1.047-.487,1.572q-1.741-.083-3.482-.162-5.1.378-10.2.76c-6.017.839-12.066,1.471-17.98,2.953-.3-.048-.6-.1-.908-.149a2.169,2.169,0,0,0-.76.079c-1.361,1.589-3.579,1.316-5.185,2.377l-1.026,1.119c-1.109-.055-2.218-.114-3.327-.169l-.014.017q2.187,1.275,4.373,2.553c-1.168.1-1.32.836-1.769,1.858-1.382,3.143-.342,7.4-4.183,9.43-.629,3.993,1.288,7.168,3.375,10.245,1.582,2.328,3.323,4.546,4.995,6.812a175.787,175.787,0,0,0,39.054,39.524c13.061,9.6,26.936,17.154,44.139,13.5q5.156-2.964,10.314-5.921a.821.821,0,0,1,.86-.86c.066-1.109.85-1.627,1.72-2.076l3.551-3.188c.929-4.622,4.7-7.859,5.807-12.5,1.506-6.335,4.159-12.394,4.532-19.009Q983.741,815.986,983.7,814.711Zm-99.566-27.527a.058.058,0,0,0,.024,0,.229.229,0,0,1,.01.028Zm14.56,18.86h.038a.256.256,0,0,1,.024.041Zm1.731-17.98h.017l0,0Zm1.741,15.41s-.007-.007-.01-.007h.017s0,.007.007.01A.021.021,0,0,0,902.17,803.475Zm41.161,22.3c0-.007-.007-.01-.01-.017l.028.017Z" transform="translate(-740.969 -594.275)"/><path class="d" d="M991.541,713.177c.51.912,1.235,1.734,2.3,1.612,8.576-.978,16.685,2.231,25.09,2.733-.616-6.089,4.4-9.785,12.227-12.6a84.38,84.38,0,0,1,16.774-4.119c-6.782-1.343-13.279,1.286-20.108,1.679,2.635-4.487,7.949-6.946,15.865-7.54-4.872-1.632-13.315.12-19.043,4a78.48,78.48,0,0,0-7.948,5.6c-7.382,6.473-15.419,4.886-23.171,1.555-4.6-1.977-9.34-3.854-13.505-7.028a23.383,23.383,0,0,1-7.453-9.522c-1.351-3.018-1.911-6.945-6.085-7.9q4.282,11.056,8.564,22.114c7.884.9,14.384,5.029,20.969,9.422Z" transform="translate(-807.198 -537.42)"/><path class="e" d="M923.34,681.57c-.159.529-.321,1.05-.484,1.575q-1.741-.083-3.482-.162-5.1.378-10.2.76c-6.017.839-12.066,1.471-17.98,2.953-.3-.048-.6-.1-.908-.148-.256-.311-.515-.622-.774-.929-.356-1.641-.687-3.289-1.081-4.922-1.313-5.44-3.42-10.722-3.309-16.449,2.035.093,1.966,1.924,2.307,3.13,2.777,9.734,9.23,12.75,16.4,12.287,2.677-.173,5.416.529,8.031-.539,5.658-2.318,7.423-6.2,4.439-13.9-3.651-9.416-6.307-19.354-12.394-27.717-.238-.332.041-1.036.076-1.568l.249-.242c2.843,3.42,4.432,7.589,6.75,11.327a10.145,10.145,0,0,0,2.283,4.484.568.568,0,0,0-.038.059q4.28,11.057,8.563,22.114C923.389,676.1,922.48,679.006,923.34,681.57Z" transform="translate(-753.935 -507.348)"/><path class="g" d="M1177.519,832.4c-.261.636-.383,1.708-.8,1.841-5.427,1.724-3.366,4.684-1.356,7.658q4.949,7.323,9.909,14.639c2.275-.646,1.168-2.01.814-3.363C1184.17,845.853,1180.566,839.242,1177.519,832.4Z" transform="translate(-942.533 -636.1)"/><path class="d" d="M959.991,668.485a10.145,10.145,0,0,0,2.282,4.485C962.09,671.181,963.536,668.564,959.991,668.485Z" transform="translate(-802.945 -528.808)"/><path class="c" d="M938.371,633.7q-.275-.528-.547-1.056a3,3,0,0,0-.552.436l.85.861Z" transform="translate(-788.074 -505.346)"/><path class="d" d="M1053.831,1431.433a3.926,3.926,0,0,0-.1.667c3.055.284,6.146,1,9.16.754,4.772-.384,7.557,2.455,10.4,5.387,6.543,6.746,14.511,11.925,20.8,18.96a4.884,4.884,0,0,0,3.453,1.514,10.034,10.034,0,0,0-2.667-3.218c-5.253-5.15-10.863-10.01-14.519-16.56-.473-.848-1.156-1.833-.424-2.777.692-.894,1.846-.7,2.793-.482,7.3,1.686,14.792,2.384,22.063,4.323,4.257,1.135,6.528,3.593,7.363,7.74.864,4.293,1.653,8.61,2.751,12.845.67,2.588,1.54,5.424-.854,7.071-2.329,1.6-4.453-.859-6.511-1.946-3.622-1.913-6.147-5.415-10.006-7.006,2.232,5.413,7.448,8.031,11.552,11.438,5.544,4.6,9.657,9.309,9.114,16.906-.093,1.3.046,2.586,1.468,3.242l.17.13q-.326-5.972-.652-11.945-1.843-12.861-3.685-25.72l.008-.021c-1.216-.92-.727-2.253-.834-3.442-2.109-5.808-2.291-11.351.319-17.3a274.061,274.061,0,0,1,16.123-31.926c1.022-1.692,2.035-3.394,4.1-4.02l0,.047c.363-2.784,2.118-4.568,4.325-6.029l-.037.033a8.351,8.351,0,0,1,.053-.836c-.023-1.155.638-1.044,1.56-1.146,1.478-.164,2.285-1.016.882-2.445l-10.053,2.12c-.549,1.961-2.42,1.854-3.81,2.207-11.827,3-23.7,5.805-35.518,8.857-4.112,1.063-8.109,2.6-12.12,4.025-2.279.812-4.351,2.854-4.022,4.863.372,2.277,2.8-.256,4.369.311,1.009.365,2.258.068,3.4.068,11.7,0,23.4-.036,35.093.036,1.223.008,2.682-1.4,3.562-.077,1,1.505-.3,2.948-1.025,4.319-3,5.649-6.169,11.214-8.917,16.981-3.449,7.238-4.182,7.662-12.053,6.36-8.238-1.362-16.584-2.131-24.764-3.757-5.72-1.137-11.58-1.034-17.223-2.5l-1.306.052C1056.357,1430.178,1054.81,1430.241,1053.831,1431.433Z" transform="translate(-864.304 -998.255)"/><path class="a" d="M1230.137,1569.861c.107,1.189-.382,2.522.834,3.442C1230.9,1572.106,1231.444,1570.759,1230.137,1569.861Z" transform="translate(-979.768 -1118.823)"/><path class="e" d="M1163.094,1012.2v-.01h-.014c.066-1.109.85-1.627,1.72-2.073C1164.855,1011.332,1164.6,1012.289,1163.094,1012.2Z" transform="translate(-935.881 -752.432)"/><path class="e" d="M869.666,863.174q-5.156,2.964-10.315,5.921c-17.2,3.658-31.078-3.893-44.139-13.5a175.786,175.786,0,0,1-39.054-39.524c-1.672-2.266-3.413-4.484-4.995-6.812-1.917-2.826-3.689-5.734-3.475-9.285a.574.574,0,0,1-.48.307c-.822.086-1.1-.653-1.233-1.365-2.511-1.3-5.762-.85-7.779-3.3-4.484-.148-8.325-2.045-11.99-4.4a5.529,5.529,0,0,1-4.28-1.706c-.729.007-1.471.042-1.734-.864a2.412,2.412,0,0,1-2.567-.874l-.007.007a6.883,6.883,0,0,1-4.269-1.817c-1.264-.283-2.573-.47-3.43-1.6a2.825,2.825,0,0,1-2.567-.846h0l-3.313-1.109c-2.777-1.662-5.441-1.879-7.9.611.076.86.2,1.72,1.085,2.152,7.064,3.437,14.073,7.005,21.23,10.242,4.947,2.235,10.37,3.447,14.688,7.009,4.069,1.416,9.047,1.852,11.337,5.8,4.028,6.947,7.354,14.3,12.207,20.764.4.3.8.6,1.2.895h-.138c2.66,1.116,3.606,3.247,3.551,5.972,1.264-.041,1.848.515,1.554,1.838l0,.034c.974-.259,1.53.214,2.131.957,2.839,3.53,5.5,7.254,8.712,10.418,2.774,2.729,4.677,6.287,7.734,8.577,3.668,2.746,6.905,5.979,10.674,8.653a84.041,84.041,0,0,0,14.415,7.952c3.848,1.727,7.824,3.285,12.249,2.508,4.86-.853,9.734-1.637,14.6-2.449a3.357,3.357,0,0,0,1.931,1.831c1.748-.252,2.978-1.52,4.473-2.256,2.183-1.071,3.206-3.934,6.083-3.9.059-2.953,4.194-3.63,3.814-6.829h-.007Zm-12.007,9.43a4.008,4.008,0,0,1-1.261.045,4.111,4.111,0,0,0,1.261-.048Z" transform="translate(-643.327 -602.553)"/><path class="e" d="M1161.45,1016.13h.014c.017.594-.273.874-.867.86v-.014s0,0-.007,0a.822.822,0,0,1,.86-.86Z" transform="translate(-934.251 -756.36)"/><path class="e" d="M748.46,787.82l.048.059h0C748.491,787.861,748.474,787.841,748.46,787.82Z" transform="translate(-664.483 -606.921)"/><path class="e" d="M755.93,790.32l.062.041h-.028A.363.363,0,0,1,755.93,790.32Z" transform="translate(-669.372 -608.558)"/><path class="e" d="M785.75,802.79l.031.017-.024,0C785.753,802.8,785.753,802.8,785.75,802.79Z" transform="translate(-688.892 -616.72)"/><path class="e" d="M790.7,805.26l.038.031h-.007Z" transform="translate(-692.132 -618.337)"/><path class="e" d="M803.13,810.26l.024.01h-.007Z" transform="translate(-700.268 -621.61)"/><path class="e" d="M865.456,833.16a1.537,1.537,0,0,1-.086.864A8.39,8.39,0,0,1,865.456,833.16Z" transform="translate(-741.009 -636.599)"/><path class="e" d="M865.594,832.782c0,.031-.01.066-.014.1-.007-.048-.014-.1-.021-.149C865.56,832.73,865.594,832.778,865.594,832.782Z" transform="translate(-741.133 -636.318)"/><path class="e" d="M904.6,939.5a.378.378,0,0,1,.062,0v.021Z" transform="translate(-766.688 -706.204)"/><path class="b" d="M1124.154,876.251q-3.646,9.431-7.294,18.862-.612,1.58-1.289,3.136c-.669,1.537.331,1.892,1.48,2.352,1.379.552,1.647-.179,2.075-1.243q5.16-12.832,10.451-25.612c.626-1.512.291-2.343-1.194-3-1.6-.711-1.991.276-2.426,1.407-.3.791-.66,1.562-.992,2.342A1.675,1.675,0,0,1,1124.154,876.251Z" transform="translate(-904.642 -661.043)"/><path class="e" d="M1160.6,1018.6v.014h-.007v-.01S1160.594,1018.6,1160.6,1018.6Z" transform="translate(-934.251 -757.983)"/><path class="b" d="M979.75,862.242c-1.134,5.159-4.74,2.953-7.726,2.594l.007-.008c1.771,2.821,5.524,2.107,7.651,4.293.124-.666.019-1.691.409-1.94C983.121,865.251,981.5,863.767,979.75,862.242Z" transform="translate(-810.821 -655.636)"/><path class="b" d="M1100.722,903.289c2.323,1.614,3.931,3.458,6.644,2.638.64-.194,1.729-.038,1.629-.838-.1-.823-.9-1.559-1.389-2.334C1105.588,904.279,1103.353,901.7,1100.722,903.289Z" transform="translate(-895.063 -682.15)"/><path class="b" d="M1122.932,880.505a1.675,1.675,0,0,0,.81-1.759c-1.623-.206-3.79.972-4.422-1.744-1.925,1.536-3.88-.207-5.816.051l-.014.015C1116.027,879.89,1119.537,880.039,1122.932,880.505Z" transform="translate(-903.42 -665.297)"/><path class="b" d="M1080.475,927.836c-1.428-2.939-3.982-3.489-6.9-3.258q.475.793.948,1.588l.007.007c.969-.065,1.954-.176,2.56.852l.018.006a2.573,2.573,0,0,1,2.567.878l-.028-.017A3.07,3.07,0,0,0,1080.475,927.836Z" transform="translate(-877.291 -696.408)"/><path class="b" d="M1101.079,938.247c.662,2.149,2.221,1.693,4.051,1.318-.94-2.163-2.326-2.206-4.031-1.339Z" transform="translate(-895.297 -705.027)"/><path class="b" d="M969.453,852.339c1.084,1.5,2.267,2.74,4.336,1.646q0-.437,0-.875l-4.279-.854Z" transform="translate(-809.139 -649.099)"/><path class="b" d="M1091.981,934.1a3.073,3.073,0,0,1-.832.055q.471.8.942,1.6l2.488.135.019-.021C1094.512,934.117,1093.167,934.226,1091.981,934.1Z" transform="translate(-888.797 -702.671)"/><path class="b" d="M1069.565,925.872q-.473-.794-.948-1.588l.052-.047-1.58-.155c-.389.243-1.782-.006-.653,1.01A3.956,3.956,0,0,0,1069.565,925.872Z" transform="translate(-872.337 -696.115)"/><rect class="e" width="0.014" height="0.01" transform="translate(227.199 259.76)"/><path class="b" d="M982,857.151c.546,1.193,1.618.841,2.56.87C983.949,857.006,983,857.006,982,857.151Z" transform="translate(-817.349 -652.258)"/><path class="b" d="M1078.893,930.059c-.606-1.027-1.591-.916-2.56-.852C1076.923,930.281,1077.93,930.1,1078.893,930.059Z" transform="translate(-879.099 -699.443)"/><path class="b" d="M1086.364,932.6a2.573,2.573,0,0,0-2.568-.878q.023.531.046,1.064Z" transform="translate(-883.984 -701.095)"/><path class="b" d="M983.628,845.7c.249-1.813-1.161-.571-1.7-.926l-.007.01a3.244,3.244,0,0,1,.055.8l.024-.024Z" transform="translate(-817.297 -644.144)"/><path class="b" d="M1069.147,922.987l1.58.155C1070.28,922.274,1069.764,922.121,1069.147,922.987Z" transform="translate(-874.395 -695.019)"/><path class="e" d="M1160.59,1018.6s0,0,.007,0v.014h-.007Z" transform="translate(-934.251 -757.983)"/><rect class="e" width="0.014" height="0.01" transform="translate(227.199 259.76)"/><path class="d" d="M924.381,1020.756c-2.877-.04-3.9,2.823-6.081,3.895-1.5.736-2.727,2-4.473,2.257a2.26,2.26,0,0,1-1.933,2.02c-5.992.976-11.8,2.908-18.115,1.828-10.054-1.719-18.346-6.678-26.279-12.674-2.915-2.2-4.995-5.519-8.721-6.646a11.416,11.416,0,0,1-4.881,1.924l-.194-.151c-1.461,1.4-3.35,1.858-5.217,2.361l-5.181,1.718-13.68,3.425-1.379.164-1.189.654-7.779.877-1.646.077-1.563.328c-3.374,1.518-7.152-.248-10.523,1.3,2.216,1.988,4.887.825,7.337.967,6.476.376,6.337.76,7.441,6.944,1.186,6.64,3.5,13.082,5.379,19.593,1.49,5.155,2.912,10.339,4.648,15.413,2.868,8.381-.615,11.717-7.086,15.385a19.87,19.87,0,0,1-6.42,2.092c-1.887.328-4.408.366-5.31,2.88a111.911,111.911,0,0,0,22.811-2.741,7.979,7.979,0,0,1,3.772-.366c3.93-1.7,7.415-3.988,12.041-.436,2.943,2.26,6.982-.432,10.03-1.859,14.136-6.623,27.4-14.654,38.421-25.945a13.755,13.755,0,0,1,4.753-3.522c.636-3.13,3.423-4.72,5.2-6.988A150.371,150.371,0,0,0,924.381,1020.756ZM823.533,1032.17c.255-4.165.222-7.73,4.436-8.627a170.96,170.96,0,0,0,26.857-7.868,3.785,3.785,0,0,1,4.528.935c8.342,7.659,17.221,14.442,28.87,16.278.936.147,2.667.775,2.239,1.314-1.719,2.166-.285,4.717-1.414,6.979a96.731,96.731,0,0,1-10.527,16.809c-.972,1.231-.583,2.834-2.125,3.965-5.33,3.911-10.745,7.828-15.435,12.446-3.055,3.008-7.1,6.162-10.09,4.8-3.169-1.447-7.395-2.681-9.6-6.153a145.4,145.4,0,0,1-14.287-29.876C825.63,1039.3,824.523,1035.344,823.533,1032.17Z" transform="translate(-701.85 -753.294)"/><path class="h" d="M776.382,775.524c2.019,2.452,5.268,2.006,7.778,3.3l1.781.046.034.05c3.84-2.025,2.8-6.286,4.182-9.43.449-1.023.6-1.755,1.768-1.856l-4.372-2.554c-1.637-.009-3.27-.029-4.663-1.476a4.748,4.748,0,0,1,4.676,1.46l3.327.169,1.028-1.119c-4.021-.734-7.543-2.962-12.062-2.729-1.909.1-4.9-2.866-7.61-4.062-1.9-.838-3.727-1.979-5.947-1.757a7.778,7.778,0,0,1-4.773-1.513c-4.77-.05-8.609-3.558-13.379-3.606-.325,2.547-4.874,1.622-4.148,5,1.744.686,1.857-1.894,4.129-1.661-1.183,2.5-.47,5.443-3.388,7.012l.8,2.615-.05-.058c.938.134,2.089-.356,2.643.9l-.062-.039a5.271,5.271,0,0,1,3.429.945c1.215,1.215,3.985-.233,4.307,2.514l.005-.007c.976-.043,2.037-.336,2.592.872l-.032-.018c.747-.03,1.5-.077,1.748.885l-.038-.031a4.374,4.374,0,0,1,4.32,1.738l-.026-.013C768.807,771.41,772.428,773.92,776.382,775.524Zm6.918-7.914,1.973.364c-.078.116-.134.306-.236.335a1.489,1.489,0,0,1-1.79-.638L782.1,767.4l.311-.439Zm-12.024-.833c-.937-.048-1.908.008-2.574-.855l-5.379-1.9c1.934-.509,3.71.905,5.386-.656L767,761.623c-1.656.1-3.231-.072-4.417-1.542,1.53.307,3.156.3,4.391,1.574,2.886-.314,1.268-2.067.77-3.36,2.634-.307,4.128,1.494,6.118,2.046-2.9-.1-2.86-.091-3.24,2.585-.032.226-1.262.281-1.936.416q0,1.3,0,2.594c.933.057,2.02-.342,2.57.86l2,.287c-.072.12-.119.312-.22.347A1.412,1.412,0,0,1,771.275,766.777Zm-8.556-.019c2.136.549,4.844-.26,6.028,2.545l1.931.365c-.075.115-.128.3-.228.335a1.447,1.447,0,0,1-1.766-.625,13.587,13.587,0,0,1-6.015-2.571l-.394-.426Zm17.132-1.678.337-.212-.352.2c.33.886.965,2.222-.872,1.526-1.739-.659-3.788-.8-5.108-2.392l-1.19-.19.281-.469.885.687C775.915,763.976,777.731,765.6,779.851,765.079ZM754.366,753.4c.1.235.336.522.269.69s-.432.221-.667.324c-.1-.234-.337-.522-.27-.687S754.13,753.5,754.366,753.4Zm-3.087-.27.648-.366a3.588,3.588,0,0,1,.04.7c-.008.072-.287.2-.319.166A2.97,2.97,0,0,1,751.279,753.127Z" transform="translate(-661.514 -582.458)"/><path class="c" d="M828.028,664.045c-4.962,5.48-9.751,5.859-15.3,1.211-.319,1.178-1.327,2.453.476,3.329l7.185,1.3a18.628,18.628,0,0,1-6.575,4.826c-3.268,2.79.314,2.9,1.537,3.94,1.669.36,3.475-.317,5.112.561-.154,1.444-2.106,1.486-2.038,2.945l.2.212c3.967-2.55,8.131-2.4,12.531-1.2-4.034,5.32-8.645,6.514-14.15,2.911a3.687,3.687,0,0,1-.654-.518c-3.068,1.989-.265,2.256.888,2.633,3.139,1.028,5.167,2.379,1.5,6.595,2.959-1.07,4.806-2.745,6.736-.7a1.027,1.027,0,0,0,1.734-.451c.6-3.09,3.308-2.42,5.47-2.929-.558-1.959-2.4-.785-3.179-1.929.274-1.549,1.479-2.719,2.649-3.944.654-.684,1.9-1.237,1.552-2.347-.442-1.428-1.961-.631-2.952-.99L825.8,678.5c1.089-1.962,2.367-3.13,4.393-3.277.818-1.134,1.685-2.236,2.438-3.412.645-1.007.628-1.939-.825-2.159-5.032-.765-3.2-3.02-1.211-5.368.519-.612.914-1.331,1.61-2.364C829.989,661.723,829.451,663.764,828.028,664.045ZM815.186,675.88c4.255-1.641,6.48-6.724,11.808-4.837.749.265,1.882-.2,2.218.794.395,1.164-.766,1.7-1.4,2.4C824.435,677.961,820.452,678.313,815.186,675.88Z" transform="translate(-706.18 -524.504)"/><path class="e" d="M794.891,739.21a7.779,7.779,0,0,0,4.773,1.513c-.844-4.512-1.435-9.108-4.293-12.952.23,2.673.51,5.344.666,8.023C796.109,737.038,796.315,738.425,794.891,739.21Z" transform="translate(-694.875 -567.615)"/><path class="g" d="M815.8,687.365a18.628,18.628,0,0,0,6.575-4.826l-7.185-1.3Q815.491,684.3,815.8,687.365Z" transform="translate(-708.16 -537.154)"/><path class="g" d="M856.033,700.458c-2.026.148-3.3,1.316-4.393,3.277l4.949.991Q856.311,702.592,856.033,700.458Z" transform="translate(-732.022 -549.736)"/><path class="g" d="M824.369,713.89c-.068-1.458,1.884-1.5,2.038-2.945-1.637-.878-3.443-.2-5.112-.561a3.664,3.664,0,0,0,1.553,3.6Z" transform="translate(-712.122 -556.234)"/><path class="e" d="M783.423,720.743a4.376,4.376,0,0,0,4.554,2.356C787.325,720.639,785.259,720.913,783.423,720.743Z" transform="translate(-687.369 -563.014)"/><path class="c" d="M826.373,720.533l-1.521.091q-.275.658-.551,1.312a3.831,3.831,0,0,0,.651.514,1.879,1.879,0,0,0,1.621-1.706Z" transform="translate(-714.126 -562.877)"/><path class="c" d="M771.053,718.132c.439.878.972,1.009,1.622.2Z" transform="translate(-679.272 -561.305)"/><path class="b" d="M898.618,781.138l-.773-.929c0,.336.006.671.01,1.007A2.256,2.256,0,0,1,898.618,781.138Z" transform="translate(-762.266 -601.939)"/><path class="g" d="M815.39,387.76l.007.007v0Z" transform="translate(-708.293 -345.053)"/><path class="g" d="M791.1,366.485q-.244-.907-.48-1.82c-.245-1.054-.49-2.111-.739-3.164l-6.252.757c-4.905.152-8.656,3.209-12.86,5.123-5.824-.746-6.384-.415-5.9,3.5l-.055-.035-4.542-.3c-.269-1.8,3.157-2.867.984-5.036-7.575,3.04-14.76,6.639-19.582,13.634a29.437,29.437,0,0,0-5.351,16.736c-.01,1.461-.984,2.653-.611,4.08.991,3.434,1.333,6.857-.224,10.235q-.855,5.259-1.713,10.515c-.736,4.525,3.033,6.4,5.365,9.119,0,.884,0,1.765,0,2.649q-.114,3.021-.231,6.045a26.914,26.914,0,0,0-.021,3.841c.839,6.124-1.527,10.055-7.641,11.537,3.219,6.739,9.6,7.7,15.938,8.556a55.532,55.532,0,0,0,7.582.618c4.242-.021,5.068,2.138,5,5.541,5.548,4.646,10.335,4.27,15.3-1.212-.535-3.233.325-5.738,3.289-7.582a7.086,7.086,0,0,0,3.413-6.449c-2.667-.722-5.859-.072-7.71-2.936-.231-1.962-.345-3.948-.712-5.886-.964-5.116.8-8.435,6.038-9.617q3.549-3.021,7.1-6.038c6.342-5.382,5.33-13.085,6.314-20.145a27.342,27.342,0,0,0,.017-3.838C793.113,392.064,793.769,379.2,791.1,366.485Zm-20.532,1.558c.121.225.245.449.366.674-.4.059-.8.117-1.206.173C770.01,368.609,770.29,368.326,770.57,368.042Zm-23.776,23.987c-3.713-3.067-1.14-3.889,1.651-4.629,4.149-1.1,8.1-.332,11.955,1.3,0,.642,0,1.285.007,1.931-1.679,5.047-3.257,5.786-6.725,3.154-1.409.9-2.929.415-4.415.356C748.445,393.438,747.63,392.72,746.794,392.029Zm13.527-21.455v0l-.007-.007Zm-15.064,8.84a24.457,24.457,0,0,1,13.724-.791c2.846.7,4.459,2.491,2.09,5.485l-17.869.58C741.7,382.077,742.8,380.236,745.257,379.414Zm28.93,36.18c-1.15.238-2.283.957-2.394-1.026,3.516-1.5,4.577-3.358,2.926-7.482-2.622-6.549-4.681-13.441-3.931-20.74,2.252,7.192,3.14,14.75,6.463,21.693C778.539,410.724,779.012,414.592,774.187,415.594Zm10.5-21.669c-3.061.822-5.437-.529-7.783-2.283-1.029-.77-1.281-1.3-.494-2.363,2.048-2.746,9.8-3.275,12.138-.739.477.518.021,1.029-.435,1.406C789.085,393.093,788.239,394.672,784.688,393.925Zm-4.073-9.848c-4.8,1.005-5.2.459-4.639-4.739,2.895-1.4,6-1.1,9.071-1.14,3.6-.048,5.558,1.5,5.261,5.306C787.106,384.115,783.855,383.4,780.615,384.077Z" transform="translate(-653.218 -327.864)"/><path class="m" d="M874.692,415.144c.3-3.8-1.666-5.353-5.262-5.3-3.067.042-6.174-.258-9.07,1.139-.565,5.2-.161,5.746,4.638,4.741C868.238,415.041,871.491,415.755,874.692,415.144Z" transform="translate(-737.601 -359.505)"/><path class="n" d="M872.815,438.079c.457-.375.914-.885.436-1.4-2.339-2.536-10.089-2.009-12.137.739-.79,1.06-.535,1.591.495,2.362,2.345,1.755,4.719,3.106,7.78,2.283.59-.67,1.7-.988,1.34-2.278C870.156,437.724,871.283,437.623,872.815,438.079Z" transform="translate(-737.919 -375.999)"/><path class="m" d="M845.414,433.434c-.751,7.3,1.31,14.188,3.932,20.738,1.651,4.125.589,5.978-2.927,7.482.11,1.982,1.244,1.263,2.394,1.024,4.826-1,4.352-4.868,3.066-7.555C848.553,448.182,847.666,440.625,845.414,433.434Z" transform="translate(-727.844 -374.95)"/><path class="c" d="M889.374,443.425c-1.532-.456-2.658-.355-2.087,1.7.359,1.29-.75,1.608-1.34,2.278C889.5,448.15,890.347,446.571,889.374,443.425Z" transform="translate(-754.479 -381.344)"/><path class="g" d="M843.489,380.444l-.837.846,1.205-.172Z" transform="translate(-726.138 -340.264)"/><path class="d" d="M1243.217,1654.348l.652,11.945C1244.906,1662.243,1246.07,1658.186,1243.217,1654.348Z" transform="translate(-988.337 -1174.126)"/><path class="d" d="M1293.946,1398.388c-2.207,1.46-3.962,3.245-4.325,6.029C1292.732,1403.605,1293.609,1401.191,1293.946,1398.388Z" transform="translate(-1018.711 -1006.581)"/><path class="d" d="M1302.088,1396.064q-.048.417-.053.836l1.143-.376Z" transform="translate(-1026.837 -1005.06)"/><path class="a" d="M1068.742,1433.494c5.643,1.469,11.5,1.366,17.223,2.5,8.18,1.626,16.526,2.4,24.764,3.757,7.871,1.3,8.6.877,12.053-6.36,2.748-5.767,5.922-11.332,8.917-16.981.727-1.371,2.028-2.813,1.024-4.319-.88-1.32-2.339.085-3.562.077-11.7-.072-23.4-.039-35.093-.036-1.141,0-2.39.3-3.4-.068-1.566-.567-4,1.967-4.369-.31-.328-2.009,1.743-4.051,4.023-4.863,4.011-1.428,8.007-2.962,12.119-4.025,11.814-3.052,23.691-5.856,35.518-8.857,1.39-.352,3.261-.246,3.81-2.207-9.754.421-19.429,1.273-28.886,4-7.987,2.306-15.985,4.7-24.387,5.074,2.689,2.866.829,4.209-1.807,5.125-3.143,1.093-5.644,2.417-3.193,6.27.94,1.477-.506,1.953-1.02,2.847C1078.64,1421.8,1073.228,1427.3,1068.742,1433.494Z" transform="translate(-874.13 -1002.272)"/><path class="d" d="M1066.267,1449.154c4.486-6.192,9.9-11.691,13.736-18.37.514-.894,1.959-1.37,1.02-2.847-2.45-3.853.05-5.177,3.194-6.27,2.636-.916,4.495-2.259,1.807-5.125,0-.222-.009-.442-.029-.663l-1.373-.15c-6.627,2.145-8.594,7.974-10.939,13.608-2.779,6.676-5.8,13.25-8.721,19.868Z" transform="translate(-871.655 -1017.933)"/><path class="e" d="M1123.054,1350.924a.108.108,0,0,1-.009.051.031.031,0,0,1-.026.009C1123.028,1350.967,1123.046,1350.941,1123.054,1350.924Z" transform="translate(-909.659 -975.513)"/><path class="c" d="M908.918,629.883a1.426,1.426,0,0,0-1.7-.627c-.1.032-.156.206-.232.314l1.82.453Z" transform="translate(-768.247 -503.076)"/><path class="c" d="M900.078,634.508l.844.011c-.1-.387.181-1.027-.549-.979C900.254,633.548,900.175,634.17,900.078,634.508Z" transform="translate(-763.728 -505.932)"/><path class="o" d="M815.613,1230.955l.879-.045C816.18,1230.551,815.888,1230.579,815.613,1230.955Z" transform="translate(-708.439 -896.789)"/><path class="a" d="M796.677,1048.429l-.846-.015C796.1,1049.019,796.384,1049.027,796.677,1048.429Z" transform="translate(-695.491 -777.498)"/><path class="e" d="M875.3,1516.2l-.658-.338c.206-.124.408-.34.618-.348s.437.187.655.294Zm.539,2.775a.3.3,0,0,0,.008.086l.051-.137C875.884,1518.946,875.858,1518.963,875.841,1518.98Z" transform="translate(-747.079 -1083.251)"/><path class="d" d="M846.682,869.28c-4.854-6.465-8.18-13.816-12.207-20.76-2.29-3.949-7.268-4.385-11.336-5.8a3.826,3.826,0,0,1-.067.762c1.468,7.043,2.913,14.091,4.42,21.126a61.311,61.311,0,0,0,1.623,6.161c2.664,8.168,2.6,8.359-5.226,12.009,4.144,1.2,7-1.656,10.106-3.43.717-.409.309-2.143-.251-3.207-3.781-7.177-3.484-15.447-6.126-22.934-.4-1.141.2-2.325,1.443-1.778,2.357,1.037,5.293,1.127,6.529,4.2,4.387,10.905,11.23,20.4,17.778,30.032,1.617,2.379,1.886,3.258-1,4.646-3.657,1.756-6.96,4.248-10.419,6.417-.862.541-.827,1.423-.9,2.27l8.65-2.219c2.214-.295,3.953-2.168,6.334-1.9a19.489,19.489,0,0,1,6.235-2.691c.51-1.451-.872-1.92-1.469-2.781-2.636-3.8-6.273-6.9-7.949-11.375a.209.209,0,0,1,.006-.036c-1.069-.144-1.368-.97-1.618-1.837l.06.02c-1.615-1.742-3.328-3.425-3.552-5.991h.138C847.154,870.317,846.912,869.806,846.682,869.28Z" transform="translate(-713.322 -642.856)"/><path class="c" d="M742.787,842.509c-6.812,1-12.971,4.394-19.917,5.036-8.729.8-12.694-1.054-14.453-9.423a209.237,209.237,0,0,0-9.537-31.437q.767-.876,1.541-1.751.881-3.415,1.765-6.829c.079-2.535.249-5.071.211-7.6-.028-1.917.556-3.3,2.446-3.952.076.86.2,1.72,1.085,2.152,7.064,3.437,14.073,7.005,21.23,10.242,4.946,2.235,10.37,3.447,14.688,7.009a3.719,3.719,0,0,1-.066.76c-.936.111-1.675.446-1.575,1.568.231,2.618.487,5.233.732,7.848,1.637,1.154-.349,2.687.643,4.28,3.53,5.679,3.285,12.263,3.651,18.667C745.337,840.962,744.553,842.254,742.787,842.509Z" transform="translate(-632.029 -606.09)"/><path class="c" d="M565.3,739.011c1.643-1.914,3.4-1.79,5.617-.8,6.8,3.048,13.706,5.864,20.571,8.771a1.487,1.487,0,0,0,.6-1.795c-7.039-2.886-14.059-5.819-21.123-8.64-3.617-1.444-7.427-.688-11.255-.781C562.543,735.34,562.88,739.022,565.3,739.011Z" transform="translate(-540.936 -572.775)"/><path class="j" d="M654.351,918.613l.42.013.417-.058C654.876,917.977,654.6,917.967,654.351,918.613Z" transform="translate(-602.882 -692.216)"/><path class="c" d="M790.111,1028.6l-.358.2.375-.187Z" transform="translate(-691.512 -764.529)"/><path class="g" d="M694.522,450.535c-.005-4.415-.117-8.833.014-13.244.122-4.1-2.972-4.38-5.674-4.866-2.87-.516-4.886.549-5.578,3.771a16.518,16.518,0,0,0,11.626,19.1,4.884,4.884,0,0,0-.359-4.053c-.692-.04-1.435.058-1.86-.695-.13-.155-.26-.308-.391-.463l.513.34Zm-3.657-1.1c-3.191-2.032-2.315-4.928-2.318-7.518,0-1.459,1.666-3.268-1.575-3.607-1.621-.17-.656-1.5.227-1.975a2.617,2.617,0,0,1,3.4.993c.86,1.158,2.74,3.214,1.48,3.944C688.186,443.527,691.115,446.3,690.865,449.432Zm-5.745-8.81.345-.732c.126.23.346.457.353.69s-.193.486-.3.73Z" transform="translate(-621.596 -374.208)"/><path class="g" d="M743.518,483.073c1.56-3.379,1.218-6.8.226-10.234Q743.631,477.956,743.518,483.073Z" transform="translate(-661.248 -400.744)"/><path class="g" d="M713,484.887l-1.708-.106-.123.123c.427.751,1.17.654,1.862.694A2.879,2.879,0,0,0,713,484.887Z" transform="translate(-640.071 -408.561)"/><path class="g" d="M815.4,387.763v0l-.007-.007Z" transform="translate(-708.293 -345.053)"/><path class="h" d="M599.368,701.612q.013.453.027.905c2.584,3.538,7.365,1.886,10.385,4.4l-.037-.031,2.626.008c-.482-.833-1.055-2.427-1.433-2.383C606.674,705.01,604.118,698.8,599.368,701.612Z" transform="translate(-566.891 -550.011)"/><path class="h" d="M636.891,716.237c.573,1.162,1.585.991,2.586.849C638.953,715.774,638.564,714.05,636.891,716.237Z" transform="translate(-591.453 -559.381)"/><path class="h" d="M644.456,720.667c.864,1.2,1.712,1.189,2.543-.034Z" transform="translate(-596.405 -562.943)"/><path class="h" d="M622.565,731.878c-.092-2.507,3.161-2.774,3.391-5.066l-18.875-.741c.188,1.6,1.526,2.073,2.707,2.28a24.676,24.676,0,0,1,9.9,3.813C620.3,732.58,621.589,732,622.565,731.878Z" transform="translate(-571.94 -566.502)"/><path class="h" d="M585.709,726.376a.524.524,0,0,0-.73-.024q.238.337.475.679Z" transform="translate(-557.473 -566.597)"/><path class="h" d="M625.245,718.29l-2.251.154c.9.82,1.445,1.937,2.618.915.1-.091-.259-.721-.4-1.1Z" transform="translate(-582.356 -561.389)"/><path class="h" d="M635.546,723.875a4.384,4.384,0,0,0,.729.267c.068.013.18-.19.272-.294a4.56,4.56,0,0,0-.732-.271C635.748,723.563,635.637,723.769,635.546,723.875Z" transform="translate(-590.573 -564.869)"/><path class="e" d="M878.17,1525.391l-.052.138a.3.3,0,0,1-.008-.086C878.127,1525.425,878.153,1525.408,878.17,1525.391Z" transform="translate(-749.348 -1089.714)"/><path class="p" d="M876.331,1525.4l-1.03.906Z" transform="translate(-747.509 -1089.721)"/><path class="q" d="M1289.722,1679.038l.381.336-.341-.375Z" transform="translate(-1018.777 -1190.261)"/><path class="r" d="M991.281,745.66c1.6,2.414.691,5.322,1.552,7.887.636,1.769,2.151,1.508,3.528,1.515,3.8.019,7.607.015,11.41.019h4.48C1005.665,750.689,999.165,746.56,991.281,745.66Z" transform="translate(-823.427 -579.324)"/><path class="b" d="M978.411,830.215c.937-.114,2.008.354,3.244-1.267-5.176-1-9.564-3.56-14.676-3.806C970.25,828.05,975.092,827.416,978.411,830.215Z" transform="translate(-807.519 -631.351)"/><path class="b" d="M965.726,828.519c-3.319-2.8-8.161-2.165-11.432-5.073l.021,0c-2.315.507-4.366-1.528-6.715-.694C953.542,824.991,959.4,827.483,965.726,828.519Z" transform="translate(-794.834 -629.655)"/><path class="b" d="M924.626,809.314c-2.286-2.373-6.063-1.669-8.4-4.081-.46-.475-1.808-.055-2.174.8-.485,1.127.53,1.5,1.35,1.609,3.074.407,5.819,2.473,9.1,1.8Z" transform="translate(-772.793 -618.189)"/><path class="b" d="M967.151,881.6c1.721,2.855,5.133,2.612,7.595,4.117a.981.981,0,0,0,1.417-.471,1.294,1.294,0,0,0-.967-1.632c-1.807-.659-3.657-1.2-5.49-1.789l-2.39-.453Z" transform="translate(-807.632 -668.156)"/><path class="b" d="M951.891,861.686c-3.043-2.6-6.974-3.1-10.624-4.255,3.242,2.133,6.531,4.152,10.631,4.248Z" transform="translate(-790.689 -652.487)"/><path class="b" d="M895.795,849.606c-2.264-2.547-3.482-3.124-6.9-3.269C891.092,848.9,891.6,849.147,895.795,849.606Z" transform="translate(-756.406 -645.225)"/><path class="b" d="M957.214,848.014c-1.944-1.46-3.844-3.084-6.549-1.731,2.308.1,3.628,3.669,6.49,1.814Z" transform="translate(-796.841 -644.858)"/><path class="b" d="M937.353,841.3c-2.045-2.705-4.077-2.7-6.07-2.827C932.419,840.484,934.382,840.681,937.353,841.3Z" transform="translate(-784.154 -640.074)"/><path class="b" d="M945.6,819.4c2.349-.834,4.4,1.2,6.715.694-2.108-2.156-5-2.056-7.649-2.667l-.119.121A1.937,1.937,0,0,0,945.6,819.4Z" transform="translate(-792.838 -626.301)"/><path class="b" d="M907.642,819.934c1.274,2.537,3.568,2.67,5.975,2.539l-1.768-1.621.033.022c-.686-.067-1.465.051-1.727-.864l-.009-.007Z" transform="translate(-768.679 -627.942)"/><path class="b" d="M974.315,841.753c-.837-1.671-2.106-2.092-4.022-1.293.484,1.667,1.79,1.927,3.138,2.132l.877-.829Z" transform="translate(-809.688 -641.121)"/><path class="b" d="M953.065,835.548c1.487,1.608,3.269.895,4.361,2.135C956.259,835.51,956.259,835.51,953.065,835.548Z" transform="translate(-798.411 -638.157)"/><path class="b" d="M943.7,870.23c.862,1.658,2.075,1.267,3.422.908A2.262,2.262,0,0,0,943.7,870.23Z" transform="translate(-792.282 -660.584)"/><path class="b" d="M919.82,822.5l1.768,1.621.007.054,2.463.128.907-.059.063-.073A5.811,5.811,0,0,0,919.82,822.5Z" transform="translate(-776.65 -629.586)"/><path class="b" d="M934.715,827.5a3.659,3.659,0,0,0,.7,1.04c.634.459.655,1.63,1.669,1.531.234-.023.544-.665.58-1.044.1-1.123-.779-1.357-1.618-1.534a7.9,7.9,0,0,0-1.267-.067Z" transform="translate(-786.4 -632.849)"/><path class="b" d="M876.836,840.81a1.6,1.6,0,0,0,1.745.842c.448-.072.786-.464.4-.832a3.157,3.157,0,0,0-1.443-.682C877.142,840.045,876.74,840.238,876.836,840.81Z" transform="translate(-748.505 -641.152)"/><path class="b" d="M957.873,876.753c.111,2.29,1.863,1.7,3.2,1.823l.165-.227q-.977-.721-1.952-1.446l.06.041Z" transform="translate(-801.559 -665.134)"/><path class="b" d="M961.974,877.176q.976.723,1.952,1.446,1.2.224,2.39.452A4.536,4.536,0,0,0,961.974,877.176Z" transform="translate(-804.243 -665.408)"/><path class="b" d="M901.67,815.935c-.827-.916-1.73-1.213-3.125-.149l3.048.226Z" transform="translate(-762.724 -624.784)"/><path class="b" d="M927.422,827.568l-2.463-.128C925.723,828.573,926.542,828.651,927.422,827.568Z" transform="translate(-780.014 -632.855)"/><path class="b" d="M907.45,818.342l2.5.069c-.552-1.105-1.584-.877-2.522-.909l-.076.076A1.847,1.847,0,0,0,907.45,818.342Z" transform="translate(-768.487 -626.35)"/><path class="b" d="M957.873,875.656l1.477.191C958.951,875.063,958.5,874.685,957.873,875.656Z" transform="translate(-801.559 -664.037)"/><path class="b" d="M914.917,820.129c.262.915,1.041.8,1.727.864C916.33,820.182,915.666,820.072,914.917,820.129Z" transform="translate(-773.441 -628.062)"/><path class="b" d="M980.254,844.974l-.877.829.932-.027A3.244,3.244,0,0,0,980.254,844.974Z" transform="translate(-815.634 -644.333)"/><path class="a" d="M1146.574,1553.128c3.859,1.591,6.384,5.093,10.006,7.006,2.057,1.087,4.181,3.549,6.511,1.946,2.393-1.647,1.524-4.483.854-7.07-1.1-4.235-1.887-8.552-2.751-12.845-.835-4.147-3.106-6.6-7.364-7.74-7.271-1.94-14.758-2.638-22.062-4.323-.947-.219-2.1-.413-2.794.482-.731.945-.049,1.929.425,2.777,3.656,6.55,9.266,11.41,14.519,16.56a10.034,10.034,0,0,1,2.667,3.218Z" transform="translate(-913.347 -1092.677)"/><path class="c" d="M909.271,944.786c1.676,4.473,5.312,7.574,7.949,11.375.6.861,1.979,1.33,1.469,2.781,2.984,2.648,6.805,4.538,7.985,8.819,3.727,1.127,5.806,4.442,8.721,6.646,7.933,6,16.225,10.954,26.279,12.674,6.316,1.081,12.123-.852,18.115-1.828a2.26,2.26,0,0,0,1.933-2.02,3.363,3.363,0,0,1-1.932-1.833c-4.869.813-9.744,1.594-14.6,2.449-4.425.778-8.4-.779-12.25-2.508a83.929,83.929,0,0,1-14.414-7.953c-3.767-2.672-7-5.905-10.674-8.653-3.056-2.288-4.96-5.845-7.733-8.577-3.211-3.162-5.874-6.887-8.714-10.416C910.8,945,910.243,944.527,909.271,944.786Z" transform="translate(-769.745 -709.62)"/><path class="h" d="M815.135,814.673c-3.954-1.6-7.575-4.114-12.007-4.418C806.8,812.62,810.646,814.524,815.135,814.673Z" transform="translate(-700.267 -621.606)"/><path class="c" d="M894.5,922.212c.223,2.567,1.938,4.249,3.552,5.992C898.108,925.469,897.163,923.33,894.5,922.212Z" transform="translate(-760.074 -694.89)"/><path class="h" d="M741.519,779.555c-1.41-.763-1.41-.763-2.521,1.507l3.317,1.107Z" transform="translate(-658.289 -601.212)"/><path class="h" d="M770.159,795.574c-.321-2.747-3.091-1.3-4.306-2.514a3.43,3.43,0,0,1,.037.7A6.9,6.9,0,0,0,770.159,795.574Z" transform="translate(-675.868 -610.351)"/><path class="h" d="M795.016,806.936a4.374,4.374,0,0,0-4.32-1.737A5.536,5.536,0,0,0,795.016,806.936Z" transform="translate(-692.129 -618.274)"/><path class="h" d="M759.393,791.945a3.439,3.439,0,0,0-.037-.7,5.274,5.274,0,0,0-3.429-.945C756.787,791.471,758.114,791.657,759.393,791.945Z" transform="translate(-669.37 -608.536)"/><path class="c" d="M904.6,939.491c.251.867.549,1.693,1.618,1.837C906.515,939.984,905.907,939.432,904.6,939.491Z" transform="translate(-766.69 -706.198)"/><path class="h" d="M862.187,832.643l-1.781-.046c.138.712.412,1.451,1.236,1.365C862.274,833.9,862.28,833.205,862.187,832.643Z" transform="translate(-737.76 -636.231)"/><path class="h" d="M751.1,788.726c-.554-1.258-1.7-.768-2.643-.9A2.823,2.823,0,0,0,751.1,788.726Z" transform="translate(-664.48 -606.923)"/><path class="h" d="M780.927,801.074c-.555-1.208-1.616-.915-2.592-.872A2.434,2.434,0,0,0,780.927,801.074Z" transform="translate(-684.038 -614.986)"/><path class="h" d="M787.493,803.653c-.246-.961-1-.914-1.748-.885C786.008,803.7,786.758,803.66,787.493,803.653Z" transform="translate(-688.889 -616.698)"/><path class="c" d="M891.421,919.615c.231.525.472,1.037,1.2.9Z" transform="translate(-758.061 -693.19)"/><path class="a" d="M857.615,1039.484c.99,3.174,2.1,7.131,3.455,11a145.407,145.407,0,0,0,14.287,29.877c2.2,3.472,6.427,4.706,9.6,6.153,2.987,1.363,7.035-1.79,10.09-4.8,4.69-4.618,10.1-8.535,15.435-12.446,1.542-1.131,1.153-2.734,2.125-3.965a96.736,96.736,0,0,0,10.527-16.809c1.13-2.263-.3-4.813,1.414-6.979.428-.54-1.3-1.167-2.239-1.314-11.649-1.836-20.528-8.62-28.87-16.278a3.785,3.785,0,0,0-4.528-.935,170.969,170.969,0,0,1-26.857,7.868C857.837,1031.753,857.87,1035.319,857.615,1039.484Z" transform="translate(-735.932 -760.608)"/><path class="h" d="M812.364,778.149c.674-.135,1.9-.19,1.937-.416.38-2.675.341-2.688,3.24-2.585-1.99-.552-3.484-2.354-6.118-2.046.5,1.292,2.115,3.046-.77,3.36l.027-.033,1.707,1.74Z" transform="translate(-705.192 -597.264)"/><path class="h" d="M805.446,790.375q0-1.3,0-2.595l.022.019c-1.676,1.561-3.452.147-5.386.656l5.379,1.9Z" transform="translate(-698.271 -606.895)"/><path class="h" d="M836.527,791.138c-2.12.523-3.936-1.1-6.018-.852l.024-.028c1.32,1.593,3.368,1.733,5.107,2.392,1.837.7,1.2-.64.872-1.526Z" transform="translate(-718.19 -608.517)"/><path class="h" d="M804.272,800.208c-1.186-2.8-3.894-1.994-6.03-2.543l-.05.05a13.6,13.6,0,0,0,6.015,2.57Z" transform="translate(-697.036 -613.365)"/><path class="h" d="M861.407,789.747a4.748,4.748,0,0,0-4.676-1.46c1.393,1.447,3.026,1.467,4.663,1.476Z" transform="translate(-735.354 -607.142)"/><path class="h" d="M802.332,779.91c-1.234-1.27-2.86-1.267-4.391-1.575,1.186,1.47,2.761,1.641,4.418,1.542Z" transform="translate(-696.872 -600.713)"/><path class="h" d="M772.865,758.985c-.235.1-.6.156-.667.327s.168.453.27.687c.234-.1.6-.154.667-.324S772.969,759.22,772.865,758.985Z" transform="translate(-680.014 -588.047)"/><path class="h" d="M818.187,796.113c-.55-1.2-1.636-.8-2.57-.86l.012-.016c.666.864,1.638.807,2.574.855Z" transform="translate(-708.442 -611.773)"/><path class="h" d="M857.758,800.2a1.491,1.491,0,0,0,1.791.637c.1-.029.159-.22.236-.335l-1.973-.364Z" transform="translate(-736.026 -614.981)"/><path class="h" d="M823.073,797.721a1.412,1.412,0,0,0,1.764.655c.1-.034.148-.227.22-.347l-2-.287Z" transform="translate(-713.311 -613.402)"/><path class="h" d="M765.213,757.514a3.088,3.088,0,0,0,.37.495c.032.03.311-.094.319-.166a3.592,3.592,0,0,0-.04-.7Z" transform="translate(-675.449 -586.843)"/><path class="h" d="M815.606,805.105a1.447,1.447,0,0,0,1.766.625c.1-.03.153-.219.228-.335q-.966-.182-1.93-.366Z" transform="translate(-708.435 -618.186)"/><path class="h" d="M828.3,789.036l-.885-.687-.281.469,1.19.19Z" transform="translate(-715.981 -607.267)"/><path class="h" d="M855.647,798.908l-.885-.646-.311.439,1.143.27Z" transform="translate(-733.861 -613.756)"/><path class="h" d="M797.5,796.952l-.443-.377.394.426Z" transform="translate(-696.29 -612.652)"/><path class="h" d="M847.889,792.39l.352-.2-.337.212Z" transform="translate(-729.566 -609.783)"/><path class="g" d="M820.918,692.4c5.266,2.433,9.249,2.081,12.626-1.642.633-.7,1.794-1.237,1.4-2.4-.336-.991-1.469-.529-2.218-.794C827.4,685.679,825.173,690.762,820.918,692.4Z" transform="translate(-711.912 -541.027)"/><path class="g" d="M827.808,717.29A1.879,1.879,0,0,1,826.187,719c5.507,3.6,10.118,2.41,14.152-2.911C835.939,714.892,831.775,714.74,827.808,717.29Z" transform="translate(-715.361 -559.423)"/><path class="m" d="M782.418,415.34c2.37-2.995.758-4.784-2.09-5.488a24.475,24.475,0,0,0-13.723.792c-2.461.821-3.562,2.663-2.054,5.275Z" transform="translate(-674.565 -359.094)"/><path class="n" d="M786.352,436.81c-3.855-1.631-7.806-2.4-11.955-1.3-2.789.737-5.365,1.561-1.649,4.628.836.69,1.649,1.407,2.473,2.113,1.485.059,3,.541,4.411-.355.43-4.915,3.256-4.724,6.728-3.155Q786.355,437.775,786.352,436.81Z" transform="translate(-679.17 -375.973)"/><path class="c" d="M802.911,443.965c-3.472-1.569-6.3-1.76-6.728,3.155C799.654,449.753,801.231,449.013,802.911,443.965Z" transform="translate(-695.721 -381.197)"/><path class="g" d="M812.689,388.751l.941-.974Z" transform="translate(-706.525 -345.064)"/><path class="e" d="M875.3,1516.2l.616-.393c-.219-.106-.441-.3-.655-.294s-.412.224-.618.348Z" transform="translate(-747.079 -1083.251)"/><path class="g" d="M696.846,456.5c.25-3.133-2.679-5.9,1.214-8.162,1.26-.731-.62-2.787-1.48-3.944a2.617,2.617,0,0,0-3.4-.993c-.883.477-1.848,1.806-.227,1.975,3.241.339,1.573,2.149,1.575,3.607C694.531,451.574,693.655,454.47,696.846,456.5Z" transform="translate(-627.577 -381.279)"/><path class="g" d="M689.247,455l.4.688c.109-.244.31-.49.3-.73s-.227-.46-.353-.69Z" transform="translate(-625.724 -388.59)"/><path class="g" d="M710.55,484.136l-.513-.34c.131.154.261.308.391.463Z" transform="translate(-639.332 -407.916)"/><path class="g" d="M662.932,722l1.427.518c-.263.919-.39,1.858-.629,2.743a5.174,5.174,0,0,1-1.022,2.1,4.44,4.44,0,0,1-1.32,1.047c-1.413-.763-1.413-.763-2.522,1.506-2.777-1.662-5.441-1.879-7.9.611-1.89.653-2.473,2.035-2.446,3.952.038,2.532-.131,5.067-.211,7.6q-.881,3.415-1.765,6.829-.772.876-1.541,1.751c-1.592.128-2.615.8-2.5,2.584a19.582,19.582,0,0,1-3.337,6.967l-5.482,11.876q-1.612,2.166-3.226,4.328c-.307-.584-.584-.6-.829.028,0,0,0,.01-.007.017l.028-.017a4.889,4.889,0,0,1-.971,3.123c-3.147,4.591-6.2,9.244-9.3,13.872-2.56-8.953-3.105-18.1-2.677-27.351q.057-2.575.117-5.154a4.058,4.058,0,0,0,.314-.525c.01-.028-.173-.142-.266-.218,1.876-3.613,5.662-5.14,8.46-7.748,4.96-3.161,5.834-7.824,4.867-13.182-.549-3.029-1.05-6.069-1.575-9.1q.041-2.943.083-5.883a1.485,1.485,0,0,0,.6-1.8q.482-2.99.967-5.979c-.5-.356-1-.708-1.5-1.06a2.575,2.575,0,0,1,.024-.47,3.128,3.128,0,0,1,1.285-1.927c.794-.66,1.706-1.24,2-2.238a2.1,2.1,0,0,0,.086-.428l.035-.263c4.1-1.814,4.352-5.385,4.166-9.154,3.25.933,6.826,1.613,4.463,6.639,3.4-.584,6.287-1.271,9.206-1.5,1.42-.107,3.444-1.617,4.256.09.978,2.048-1.693,2.48-2.7,3.679-.142.166-.083.5-.169,1.185,3.523,0,6.991-.035,10.459.017,1.375.021,3.7.221,2.46,2.055-1.475,2.187.29,3.32.446,4.926-.245,1.938-2.936,1.865-3.889,3.206a2.147,2.147,0,0,0-.259,1.8C661.737,723.485,662.189,722.636,662.932,722Z" transform="translate(-578.157 -550.065)"/><path class="g" d="M752.611,760.092a7.533,7.533,0,0,0-.415,1.119l-1.427-.518A2.288,2.288,0,0,1,752.611,760.092Z" transform="translate(-665.995 -588.762)"/></g><path class="g" d="M1101.584,861.665c-4.929,1.717-10.567,4.29-17.613,6.867-5.029,1.838-17.606-7.264-14.38-15.741a9.011,9.011,0,0,1,1.275-2.266,12.873,12.873,0,0,1,2.18-2.221,28.688,28.688,0,0,1,9.517-4.656c27.479-8.58,26.774-12.867,26.774-12.867s7.047,20.591,7.751,24.021S1106.517,859.951,1101.584,861.665Z" transform="translate(-368.994 -370.915)"/><path class="a" d="M1006.826,1635.406s57.306,23.046,83.161,16.924l-1.914-5.633-74.332-21.081-3.432,6.864Z" transform="translate(-328.252 -891.192)"/><path class="d" d="M1255.449,1652.473l71.984-10.555,2.8-16.3-61.14,8.58-13.728,5.148Z" transform="translate(-490.935 -891.192)"/><line class="s" x1="15.113" y1="5.482" transform="translate(544.166 419.384)"/><line class="s" x1="2.028" y1="0.736" transform="translate(588.097 435.322)"/><line class="s" x1="112.499" y1="40.812" transform="translate(591.552 436.576)"/><line class="s" x1="14.042" y1="5.099" transform="translate(543.24 422.006)"/><line class="s" x1="110.948" y1="40.291" transform="translate(590.923 439.319)"/><line class="s" x1="13.555" y1="4.953" transform="translate(542.442 424.078)"/><line class="s" x1="110.696" y1="40.453" transform="translate(589.901 441.422)"/><path class="m" d="M837.071,539s-1.382,3.865-6.909,5.181A13.7,13.7,0,0,1,816,539.658" transform="translate(-203.343 -179.925)"/><path class="t" d="M816,539.691,837.071,539S831.2,545.218,816,539.691Z" transform="translate(-203.343 -179.925)"/></g></svg>